<svg width="180" height="126" viewBox="0 0 180 126" fill="none" xmlns="http://www.w3.org/2000/svg">
<g clip-path="url(#clip0_1_2)">
<rect width="180" height="126" fill="white"/>
<line x1="-3.17918" y1="105.728" x2="183.537" y2="34.054" stroke="#191414" stroke-opacity="0.5"/>
<line x1="-3.17918" y1="123.901" x2="183.537" y2="52.2275" stroke="#191414" stroke-opacity="0.5"/>
<line x1="-3.17918" y1="142.075" x2="183.537" y2="70.4011" stroke="#191414" stroke-opacity="0.5"/>
<line x1="-3.17918" y1="160.248" x2="183.537" y2="88.5747" stroke="#191414" stroke-opacity="0.5"/>
<line x1="-3.17918" y1="87.554" x2="183.537" y2="15.8804" stroke="#191414" stroke-opacity="0.5"/>
<line x1="-3.17918" y1="69.3804" x2="183.537" y2="-2.29321" stroke="#191414" stroke-opacity="0.5"/>
<line x1="-3.17918" y1="51.2068" x2="183.537" y2="-20.4668" stroke="#191414" stroke-opacity="0.5"/>
<path d="M99.0142 71.0618C98.8068 71.0618 98.6271 71.0256 98.4751 70.9531C98.3246 70.8793 98.2138 70.7699 98.1428 70.625C98.0717 70.4801 98.054 70.3004 98.0895 70.0859C98.1207 69.9041 98.1797 69.7521 98.2663 69.63C98.3544 69.5064 98.4616 69.407 98.5881 69.3317C98.7145 69.2564 98.8544 69.1989 99.0078 69.1591C99.1626 69.1193 99.3224 69.0923 99.4872 69.0781C99.6776 69.0582 99.8324 69.0391 99.9517 69.0206C100.072 69.0021 100.163 68.9759 100.222 68.9418C100.282 68.9062 100.318 68.8537 100.331 68.7841V68.7713C100.352 68.6378 100.327 68.5341 100.256 68.4602C100.187 68.3849 100.075 68.3473 99.9219 68.3473C99.7599 68.3473 99.6222 68.3828 99.5085 68.4538C99.3963 68.5249 99.3161 68.6151 99.2678 68.7244L98.4411 68.6562C98.5149 68.4574 98.6264 68.2855 98.7756 68.1406C98.9261 67.9943 99.1072 67.8821 99.3189 67.804C99.5305 67.7244 99.7678 67.6847 100.031 67.6847C100.212 67.6847 100.382 67.706 100.54 67.7486C100.699 67.7912 100.836 67.8572 100.951 67.9467C101.067 68.0362 101.151 68.1513 101.202 68.2919C101.255 68.4311 101.266 68.598 101.234 68.7926L100.866 71H100.005L100.082 70.5462H100.056C99.9865 70.6484 99.9013 70.7386 99.8004 70.8168C99.6996 70.8935 99.5838 70.9538 99.4531 70.9979C99.3224 71.0405 99.1761 71.0618 99.0142 71.0618ZM99.3786 70.4354C99.5107 70.4354 99.6321 70.4091 99.7429 70.3565C99.8551 70.3026 99.9474 70.2301 100.02 70.1392C100.094 70.0483 100.141 69.9453 100.161 69.8303L100.216 69.483C100.188 69.5014 100.146 69.5178 100.092 69.532C100.04 69.5462 99.9822 69.5597 99.9197 69.5724C99.8587 69.5838 99.7969 69.5945 99.7344 69.6044C99.6719 69.6129 99.6158 69.6214 99.5661 69.63C99.4567 69.6456 99.3587 69.6705 99.272 69.7045C99.1854 69.7386 99.1151 69.7848 99.0611 69.843C99.0071 69.8999 98.9737 69.9709 98.9609 70.0561C98.9411 70.1797 98.9702 70.2741 99.0483 70.3395C99.1278 70.4034 99.2379 70.4354 99.3786 70.4354Z" fill="#514683"/>
<path d="M103.56 91.0639C103.223 91.0639 102.946 90.9929 102.729 90.8509C102.513 90.7074 102.362 90.5085 102.275 90.2543C102.19 90 102.175 89.7074 102.23 89.3764C102.284 89.0412 102.397 88.7472 102.569 88.4943C102.741 88.2401 102.959 88.0419 103.223 87.8999C103.489 87.7564 103.787 87.6847 104.118 87.6847C104.403 87.6847 104.645 87.7365 104.842 87.8402C105.04 87.9439 105.185 88.0895 105.277 88.277C105.369 88.4645 105.401 88.6847 105.371 88.9375H104.516C104.518 88.7756 104.476 88.6442 104.391 88.5433C104.305 88.4425 104.18 88.392 104.016 88.392C103.874 88.392 103.743 88.4304 103.624 88.5071C103.506 88.5824 103.406 88.6925 103.323 88.8374C103.242 88.9822 103.185 89.1577 103.153 89.3636C103.119 89.5724 103.118 89.75 103.151 89.8963C103.183 90.0426 103.246 90.1541 103.338 90.2308C103.43 90.3075 103.547 90.3459 103.688 90.3459C103.793 90.3459 103.89 90.3246 103.979 90.282C104.07 90.2393 104.15 90.1776 104.218 90.0966C104.286 90.0142 104.339 89.9155 104.376 89.8004H105.232C105.174 90.0518 105.068 90.272 104.915 90.4609C104.763 90.6499 104.572 90.7976 104.342 90.9041C104.112 91.0107 103.851 91.0639 103.56 91.0639Z" fill="#20F727"/>
<path d="M88.1065 63L88.831 58.6364H89.7386L89.4702 60.277H89.4957C89.5497 60.1889 89.6222 60.0994 89.7131 60.0085C89.8054 59.9162 89.9183 59.8395 90.0518 59.7784C90.1854 59.7159 90.3438 59.6847 90.527 59.6847C90.7656 59.6847 90.9751 59.7472 91.1555 59.8722C91.3359 59.9957 91.4659 60.1825 91.5455 60.4325C91.625 60.6811 91.6335 60.9929 91.571 61.3679C91.5114 61.733 91.4013 62.0412 91.2408 62.2926C91.0817 62.5426 90.8906 62.7322 90.6676 62.8615C90.446 62.9893 90.2109 63.0533 89.9624 63.0533C89.7862 63.0533 89.6413 63.0241 89.5277 62.9659C89.4155 62.9077 89.3281 62.8345 89.2656 62.7464C89.2031 62.657 89.1584 62.5668 89.1314 62.4759H89.0866L89.0014 63H88.1065ZM89.2678 61.3636C89.2365 61.5582 89.2358 61.728 89.2656 61.8729C89.2969 62.0178 89.3565 62.1307 89.4446 62.2116C89.5341 62.2912 89.6513 62.331 89.7962 62.331C89.9453 62.331 90.0774 62.2905 90.1925 62.2095C90.3089 62.1271 90.4055 62.0135 90.4822 61.8686C90.5589 61.7223 90.6129 61.554 90.6442 61.3636C90.674 61.1747 90.6747 61.0085 90.6463 60.8651C90.6179 60.7216 90.5597 60.6094 90.4716 60.5284C90.3835 60.4474 90.2642 60.407 90.1136 60.407C89.9673 60.407 89.8359 60.446 89.7195 60.5241C89.6044 60.6023 89.5078 60.7131 89.4297 60.8565C89.353 61 89.299 61.169 89.2678 61.3636Z" fill="#514683"/>
<path d="M123.064 58.0999C123.176 57.8477 123.063 57.5521 122.81 57.4398L118.699 55.6095C118.447 55.4972 118.152 55.6106 118.039 55.8629C117.927 56.1152 118.04 56.4107 118.293 56.523L121.947 58.15L120.32 61.8042C120.208 62.0564 120.321 62.352 120.573 62.4643C120.826 62.5766 121.121 62.4632 121.233 62.2109L123.064 58.0999ZM90.1108 70.9062L122.786 58.3634L122.428 57.4298L89.7525 69.9727L90.1108 70.9062Z" fill="#514683"/>
<path d="M121.017 99.4997C121.293 99.4905 121.509 99.2593 121.5 98.9833L121.35 94.4858C121.341 94.2099 121.109 93.9936 120.833 94.0028C120.557 94.012 120.341 94.2432 120.35 94.5192L120.484 98.5169L116.486 98.6502C116.21 98.6594 115.994 98.8906 116.003 99.1666C116.012 99.4426 116.243 99.6588 116.519 99.6496L121.017 99.4997ZM89.6584 70.3651L120.658 99.3651L121.342 98.6349L90.3416 69.6349L89.6584 70.3651Z" fill="#20F727"/>
<path d="M97.8347 48.9991C97.7137 48.7509 97.4143 48.6478 97.1661 48.7689L93.1216 50.7415C92.8734 50.8626 92.7703 51.1619 92.8913 51.4101C93.0124 51.6583 93.3117 51.7614 93.5599 51.6403L97.1551 49.8868L98.9086 53.482C99.0296 53.7302 99.329 53.8333 99.5772 53.7122C99.8254 53.5912 99.9284 53.2918 99.8074 53.0436L97.8347 48.9991ZM90.37 71.128L97.8581 49.381L96.9126 49.0555L89.4245 70.8024L90.37 71.128Z" fill="#514683"/>
<path d="M63.559 147.781L117.199 -8.00002" stroke="#191414" stroke-opacity="0.5"/>
<path d="M34.9193 143.781L88.559 -12" stroke="#191414" stroke-opacity="0.5"/>
<path d="M6.27952 140.781L59.9193 -15" stroke="#191414" stroke-opacity="0.5"/>
<path d="M-22.3602 135.781L31.2795 -20" stroke="#191414" stroke-opacity="0.5"/>
<path d="M-51 131.781L2.63976 -24" stroke="#191414" stroke-opacity="0.5"/>
<path d="M92.1988 147.781L145.839 -8.00002" stroke="#191414" stroke-opacity="0.5"/>
<path d="M120.839 149.781L174.478 -6.00002" stroke="#191414" stroke-opacity="0.5"/>
<path d="M149.478 149.781L203.118 -6.00002" stroke="#191414" stroke-opacity="0.5"/>
<path d="M178.118 152.781L231.758 -3.00002" stroke="#191414" stroke-opacity="0.5"/>
<path d="M82.831 67.0341C82.6946 67.0327 82.5756 66.9957 82.4741 66.9233C82.3725 66.8501 82.2937 66.7496 82.2376 66.6218C82.1815 66.494 82.1534 66.3473 82.1534 66.1818C82.1534 66.0178 82.1829 65.8729 82.2418 65.7472C82.3015 65.6207 82.3835 65.5217 82.4879 65.4499C82.5923 65.3782 82.7124 65.3423 82.848 65.3423C82.9474 65.3423 83.0334 65.3615 83.1058 65.3999C83.1783 65.4375 83.2397 65.4901 83.2901 65.5575C83.3413 65.625 83.3842 65.7024 83.419 65.7898H83.517L83.5554 66.1776L83.7685 67H83.5341L83.3338 66.1776C83.3232 66.1257 83.3068 66.0653 83.2848 65.9964C83.2628 65.9276 83.2333 65.8604 83.1964 65.7951C83.1594 65.7298 83.1122 65.6758 83.0547 65.6332C82.9979 65.5898 82.929 65.5682 82.848 65.5682C82.7614 65.5682 82.6847 65.5945 82.6179 65.647C82.5511 65.6996 82.4989 65.7724 82.4613 65.8654C82.4237 65.9585 82.4048 66.0653 82.4048 66.1861C82.4048 66.304 82.4226 66.4102 82.4581 66.5046C82.4936 66.5984 82.5433 66.6726 82.6072 66.7273C82.6712 66.7812 82.7457 66.8082 82.831 66.8082C82.9098 66.8082 82.9783 66.7866 83.0366 66.7433C83.0948 66.6992 83.1438 66.6442 83.1836 66.5781C83.2234 66.5114 83.2553 66.4428 83.2795 66.3725C83.3043 66.3015 83.3224 66.2393 83.3338 66.1861L83.5128 65.3636H83.7472L83.5554 66.1861L83.517 66.5866H83.4318C83.3949 66.6747 83.3487 66.7528 83.2933 66.821C83.2386 66.8885 83.1729 66.9411 83.0962 66.9787C83.0202 67.0163 82.9318 67.0348 82.831 67.0341ZM85.098 65.7088V65.4787H86.4105V65.7088H85.098ZM85.098 66.3395V66.1094H86.4105V66.3395H85.098ZM88.5244 67.0298C88.3639 67.0298 88.2272 66.9862 88.1143 66.8988C88.0013 66.8107 87.915 66.6832 87.8554 66.5163C87.7957 66.3487 87.7659 66.1463 87.7659 65.9091C87.7659 65.6733 87.7957 65.4719 87.8554 65.305C87.9157 65.1374 88.0024 65.0096 88.1153 64.9215C88.229 64.8327 88.3653 64.7884 88.5244 64.7884C88.6835 64.7884 88.8195 64.8327 88.9324 64.9215C89.0461 65.0096 89.1327 65.1374 89.1924 65.305C89.2528 65.4719 89.2829 65.6733 89.2829 65.9091C89.2829 66.1463 89.2531 66.3487 89.1934 66.5163C89.1338 66.6832 89.0475 66.8107 88.9346 66.8988C88.8216 66.9862 88.6849 67.0298 88.5244 67.0298ZM88.5244 66.7955C88.6835 66.7955 88.8071 66.7187 88.8952 66.5653C88.9832 66.4119 89.0273 66.1932 89.0273 65.9091C89.0273 65.7202 89.007 65.5593 88.9665 65.4265C88.9268 65.2937 88.8692 65.1925 88.7939 65.1229C88.7194 65.0533 88.6295 65.0185 88.5244 65.0185C88.3667 65.0185 88.2435 65.0962 88.1547 65.2518C88.066 65.4066 88.0216 65.6257 88.0216 65.9091C88.0216 66.098 88.0415 66.2585 88.0812 66.3906C88.121 66.5227 88.1782 66.6232 88.2528 66.6921C88.328 66.761 88.4186 66.7955 88.5244 66.7955ZM82.7543 69.7386H82.9673C83.1165 69.7386 83.2379 69.7702 83.3317 69.8335C83.4261 69.8967 83.4954 69.9769 83.5394 70.0742C83.5842 70.1715 83.6065 70.2713 83.6065 70.3736C83.6065 70.4972 83.5778 70.6087 83.5202 70.7081C83.4627 70.8068 83.3835 70.8853 83.2827 70.9435C83.1818 71.0011 83.0668 71.0298 82.9375 71.0298C82.8587 71.0298 82.7805 71.0153 82.7031 70.9862C82.6264 70.9563 82.5582 70.8999 82.4986 70.8168L82.4815 70.8253V70.4077C82.4815 70.4773 82.4986 70.5415 82.5327 70.6005C82.5675 70.6594 82.6165 70.7067 82.6797 70.7422C82.7436 70.7777 82.8196 70.7955 82.9077 70.7955C83 70.7955 83.0795 70.7759 83.1463 70.7369C83.2131 70.6978 83.2646 70.6463 83.3008 70.5824C83.337 70.5185 83.3551 70.4489 83.3551 70.3736C83.3551 70.3026 83.3388 70.2354 83.3061 70.1722C83.2741 70.1083 83.2287 70.0565 83.1697 70.0167C83.1115 69.9762 83.0426 69.956 82.9631 69.956H82.7543V69.7386ZM82.8778 68.7884C82.9794 68.7884 83.0692 68.8047 83.1474 68.8374C83.2262 68.87 83.2926 68.9141 83.3466 68.9695C83.4013 69.0241 83.4425 69.0856 83.4702 69.1538C83.4986 69.2219 83.5128 69.2919 83.5128 69.3636C83.5128 69.4531 83.4901 69.5423 83.4446 69.631C83.3991 69.7191 83.3295 69.7926 83.2358 69.8516C83.142 69.9098 83.0227 69.9389 82.8778 69.9389H82.7543V69.7216H82.8736C82.956 69.7216 83.0263 69.7045 83.0845 69.6705C83.1435 69.6364 83.1882 69.592 83.2188 69.5373C83.25 69.4826 83.2656 69.4247 83.2656 69.3636C83.2656 69.2656 83.228 69.1843 83.1527 69.1197C83.0781 69.055 82.9865 69.0227 82.8778 69.0227C82.8054 69.0227 82.739 69.0376 82.6786 69.0675C82.619 69.0973 82.571 69.1388 82.5348 69.1921C82.4993 69.2454 82.4815 69.3068 82.4815 69.3764V71.6136H82.2301V69.3764C82.2301 69.2642 82.2578 69.1637 82.3132 69.0749C82.3693 68.9862 82.446 68.9162 82.5433 68.8651C82.6413 68.8139 82.7528 68.7884 82.8778 68.7884ZM84.9545 69.7088V69.4787H86.267V69.7088H84.9545ZM84.9545 70.3395V70.1094H86.267V70.3395H84.9545ZM88.3809 71.0298C88.2203 71.0298 88.0836 70.9862 87.9707 70.8988C87.8578 70.8107 87.7715 70.6832 87.7118 70.5163C87.6522 70.3487 87.6223 70.1463 87.6223 69.9091C87.6223 69.6733 87.6522 69.4719 87.7118 69.305C87.7722 69.1374 87.8588 69.0096 87.9718 68.9215C88.0854 68.8327 88.2218 68.7884 88.3809 68.7884C88.54 68.7884 88.676 68.8327 88.7889 68.9215C88.9025 69.0096 88.9892 69.1374 89.0488 69.305C89.1092 69.4719 89.1394 69.6733 89.1394 69.9091C89.1394 70.1463 89.1096 70.3487 89.0499 70.5163C88.9902 70.6832 88.9039 70.8107 88.791 70.8988C88.6781 70.9862 88.5414 71.0298 88.3809 71.0298ZM88.3809 70.7955C88.54 70.7955 88.6635 70.7187 88.7516 70.5653C88.8397 70.4119 88.8837 70.1932 88.8837 69.9091C88.8837 69.7202 88.8635 69.5593 88.823 69.4265C88.7832 69.2937 88.7257 69.1925 88.6504 69.1229C88.5758 69.0533 88.486 69.0185 88.3809 69.0185C88.2232 69.0185 88.1 69.0962 88.0112 69.2518C87.9224 69.4066 87.878 69.6257 87.878 69.9091C87.878 70.098 87.8979 70.2585 87.9377 70.3906C87.9775 70.5227 88.0346 70.6232 88.1092 70.6921C88.1845 70.761 88.275 70.7955 88.3809 70.7955Z" fill="black"/>
<path d="M134.831 82.0341C134.695 82.0327 134.576 81.9957 134.474 81.9233C134.373 81.8501 134.294 81.7496 134.238 81.6218C134.181 81.494 134.153 81.3473 134.153 81.1818C134.153 81.0178 134.183 80.8729 134.242 80.7472C134.301 80.6207 134.384 80.5217 134.488 80.4499C134.592 80.3782 134.712 80.3423 134.848 80.3423C134.947 80.3423 135.033 80.3615 135.106 80.3999C135.178 80.4375 135.24 80.4901 135.29 80.5575C135.341 80.625 135.384 80.7024 135.419 80.7898H135.517L135.555 81.1776L135.768 82H135.534L135.334 81.1776C135.323 81.1257 135.307 81.0653 135.285 80.9964C135.263 80.9276 135.233 80.8604 135.196 80.7951C135.159 80.7298 135.112 80.6758 135.055 80.6332C134.998 80.5898 134.929 80.5682 134.848 80.5682C134.761 80.5682 134.685 80.5945 134.618 80.647C134.551 80.6996 134.499 80.7724 134.461 80.8654C134.424 80.9585 134.405 81.0653 134.405 81.1861C134.405 81.304 134.423 81.4102 134.458 81.5046C134.494 81.5984 134.543 81.6726 134.607 81.7273C134.671 81.7812 134.746 81.8082 134.831 81.8082C134.91 81.8082 134.978 81.7866 135.037 81.7433C135.095 81.6992 135.144 81.6442 135.184 81.5781C135.223 81.5114 135.255 81.4428 135.279 81.3725C135.304 81.3015 135.322 81.2393 135.334 81.1861L135.513 80.3636H135.747L135.555 81.1861L135.517 81.5866H135.432C135.395 81.6747 135.349 81.7528 135.293 81.821C135.239 81.8885 135.173 81.9411 135.096 81.9787C135.02 82.0163 134.932 82.0348 134.831 82.0341ZM137.098 80.7088V80.4787H138.411V80.7088H137.098ZM137.098 81.3395V81.1094H138.411V81.3395H137.098ZM140.657 82V81.8082L141.377 81.0199C141.461 80.9276 141.531 80.8473 141.585 80.7791C141.64 80.7102 141.681 80.6456 141.707 80.5852C141.734 80.5241 141.747 80.4602 141.747 80.3935C141.747 80.3168 141.729 80.2504 141.692 80.1942C141.656 80.1381 141.606 80.0948 141.543 80.0643C141.48 80.0337 141.409 80.0185 141.33 80.0185C141.246 80.0185 141.173 80.0359 141.11 80.0707C141.049 80.1048 141.001 80.1527 140.967 80.2145C140.933 80.2763 140.916 80.3487 140.916 80.4318H140.665C140.665 80.304 140.695 80.1918 140.753 80.0952C140.812 79.9986 140.893 79.9233 140.994 79.8693C141.097 79.8153 141.211 79.7884 141.338 79.7884C141.466 79.7884 141.579 79.8153 141.678 79.8693C141.777 79.9233 141.854 79.9961 141.91 80.0877C141.967 80.1793 141.995 80.2812 141.995 80.3935C141.995 80.4737 141.98 80.5522 141.951 80.6289C141.922 80.7049 141.873 80.7898 141.802 80.8835C141.731 80.9766 141.634 81.0902 141.509 81.2244L141.019 81.7486V81.7656H142.033V82H140.657ZM134.754 84.7386H134.967C135.116 84.7386 135.238 84.7702 135.332 84.8335C135.426 84.8967 135.495 84.9769 135.539 85.0742C135.584 85.1715 135.607 85.2713 135.607 85.3736C135.607 85.4972 135.578 85.6087 135.52 85.7081C135.463 85.8068 135.384 85.8853 135.283 85.9435C135.182 86.0011 135.067 86.0298 134.938 86.0298C134.859 86.0298 134.781 86.0153 134.703 85.9862C134.626 85.9563 134.558 85.8999 134.499 85.8168L134.482 85.8253V85.4077C134.482 85.4773 134.499 85.5415 134.533 85.6005C134.567 85.6594 134.616 85.7067 134.68 85.7422C134.744 85.7777 134.82 85.7955 134.908 85.7955C135 85.7955 135.08 85.7759 135.146 85.7369C135.213 85.6978 135.265 85.6463 135.301 85.5824C135.337 85.5185 135.355 85.4489 135.355 85.3736C135.355 85.3026 135.339 85.2354 135.306 85.1722C135.274 85.1083 135.229 85.0565 135.17 85.0167C135.112 84.9762 135.043 84.956 134.963 84.956H134.754V84.7386ZM134.878 83.7884C134.979 83.7884 135.069 83.8047 135.147 83.8374C135.226 83.87 135.293 83.9141 135.347 83.9695C135.401 84.0241 135.442 84.0856 135.47 84.1538C135.499 84.2219 135.513 84.2919 135.513 84.3636C135.513 84.4531 135.49 84.5423 135.445 84.631C135.399 84.7191 135.33 84.7926 135.236 84.8516C135.142 84.9098 135.023 84.9389 134.878 84.9389H134.754V84.7216H134.874C134.956 84.7216 135.026 84.7045 135.085 84.6705C135.143 84.6364 135.188 84.592 135.219 84.5373C135.25 84.4826 135.266 84.4247 135.266 84.3636C135.266 84.2656 135.228 84.1843 135.153 84.1197C135.078 84.055 134.987 84.0227 134.878 84.0227C134.805 84.0227 134.739 84.0376 134.679 84.0675C134.619 84.0973 134.571 84.1388 134.535 84.1921C134.499 84.2454 134.482 84.3068 134.482 84.3764V86.6136H134.23V84.3764C134.23 84.2642 134.258 84.1637 134.313 84.0749C134.369 83.9862 134.446 83.9162 134.543 83.8651C134.641 83.8139 134.753 83.7884 134.878 83.7884ZM136.954 84.9474V84.7173H138.267V84.9474H136.954ZM136.954 85.5781V85.348H138.267V85.5781H136.954ZM140.611 84.7919V85.0263H139.656V84.7919H140.611ZM140.947 86V85.8082L141.667 85.0199C141.751 84.9276 141.821 84.8473 141.876 84.7791C141.93 84.7102 141.971 84.6456 141.997 84.5852C142.024 84.5241 142.037 84.4602 142.037 84.3935C142.037 84.3168 142.019 84.2504 141.982 84.1942C141.946 84.1381 141.896 84.0948 141.833 84.0643C141.77 84.0337 141.699 84.0185 141.62 84.0185C141.536 84.0185 141.463 84.0359 141.4 84.0707C141.339 84.1048 141.291 84.1527 141.257 84.2145C141.223 84.2763 141.206 84.3487 141.206 84.4318H140.955C140.955 84.304 140.985 84.1918 141.044 84.0952C141.102 83.9986 141.183 83.9233 141.284 83.8693C141.387 83.8153 141.501 83.7884 141.628 83.7884C141.756 83.7884 141.869 83.8153 141.968 83.8693C142.067 83.9233 142.144 83.9961 142.2 84.0877C142.257 84.1793 142.285 84.2812 142.285 84.3935C142.285 84.4737 142.27 84.5522 142.241 84.6289C142.213 84.7049 142.163 84.7898 142.092 84.8835C142.021 84.9766 141.924 85.0902 141.799 85.2244L141.309 85.7486V85.7656H142.323V86H140.947Z" fill="black"/>
<path d="M93.831 116.034C93.6946 116.033 93.5756 115.996 93.4741 115.923C93.3725 115.85 93.2937 115.75 93.2376 115.622C93.1815 115.494 93.1534 115.347 93.1534 115.182C93.1534 115.018 93.1829 114.873 93.2418 114.747C93.3015 114.621 93.3835 114.522 93.4879 114.45C93.5923 114.378 93.7124 114.342 93.848 114.342C93.9474 114.342 94.0334 114.362 94.1058 114.4C94.1783 114.437 94.2397 114.49 94.2901 114.558C94.3413 114.625 94.3842 114.702 94.419 114.79H94.517L94.5554 115.178L94.7685 116H94.5341L94.3338 115.178C94.3232 115.126 94.3068 115.065 94.2848 114.996C94.2628 114.928 94.2333 114.86 94.1964 114.795C94.1594 114.73 94.1122 114.676 94.0547 114.633C93.9979 114.59 93.929 114.568 93.848 114.568C93.7614 114.568 93.6847 114.594 93.6179 114.647C93.5511 114.7 93.4989 114.772 93.4613 114.865C93.4237 114.958 93.4048 115.065 93.4048 115.186C93.4048 115.304 93.4226 115.41 93.4581 115.505C93.4936 115.598 93.5433 115.673 93.6072 115.727C93.6712 115.781 93.7457 115.808 93.831 115.808C93.9098 115.808 93.9783 115.787 94.0366 115.743C94.0948 115.699 94.1438 115.644 94.1836 115.578C94.2234 115.511 94.2553 115.443 94.2795 115.373C94.3043 115.301 94.3224 115.239 94.3338 115.186L94.5128 114.364H94.7472L94.5554 115.186L94.517 115.587H94.4318C94.3949 115.675 94.3487 115.753 94.2933 115.821C94.2386 115.888 94.1729 115.941 94.0962 115.979C94.0202 116.016 93.9318 116.035 93.831 116.034ZM96.098 114.709V114.479H97.4105V114.709H96.098ZM96.098 115.339V115.109H97.4105V115.339H96.098ZM100.424 113.818V116H100.159V114.095H100.147L99.6139 114.449V114.18L100.159 113.818H100.424ZM93.7543 118.739H93.9673C94.1165 118.739 94.2379 118.77 94.3317 118.833C94.4261 118.897 94.4954 118.977 94.5394 119.074C94.5842 119.172 94.6065 119.271 94.6065 119.374C94.6065 119.497 94.5778 119.609 94.5202 119.708C94.4627 119.807 94.3835 119.885 94.2827 119.944C94.1818 120.001 94.0668 120.03 93.9375 120.03C93.8587 120.03 93.7805 120.015 93.7031 119.986C93.6264 119.956 93.5582 119.9 93.4986 119.817L93.4815 119.825V119.408C93.4815 119.477 93.4986 119.542 93.5327 119.6C93.5675 119.659 93.6165 119.707 93.6797 119.742C93.7436 119.778 93.8196 119.795 93.9077 119.795C94 119.795 94.0795 119.776 94.1463 119.737C94.2131 119.698 94.2646 119.646 94.3008 119.582C94.337 119.518 94.3551 119.449 94.3551 119.374C94.3551 119.303 94.3388 119.235 94.3061 119.172C94.2741 119.108 94.2287 119.056 94.1697 119.017C94.1115 118.976 94.0426 118.956 93.9631 118.956H93.7543V118.739ZM93.8778 117.788C93.9794 117.788 94.0692 117.805 94.1474 117.837C94.2262 117.87 94.2926 117.914 94.3466 117.969C94.4013 118.024 94.4425 118.086 94.4702 118.154C94.4986 118.222 94.5128 118.292 94.5128 118.364C94.5128 118.453 94.4901 118.542 94.4446 118.631C94.3991 118.719 94.3295 118.793 94.2358 118.852C94.142 118.91 94.0227 118.939 93.8778 118.939H93.7543V118.722H93.8736C93.956 118.722 94.0263 118.705 94.0845 118.67C94.1435 118.636 94.1882 118.592 94.2188 118.537C94.25 118.483 94.2656 118.425 94.2656 118.364C94.2656 118.266 94.228 118.184 94.1527 118.12C94.0781 118.055 93.9865 118.023 93.8778 118.023C93.8054 118.023 93.739 118.038 93.6786 118.067C93.619 118.097 93.571 118.139 93.5348 118.192C93.4993 118.245 93.4815 118.307 93.4815 118.376V120.614H93.2301V118.376C93.2301 118.264 93.2578 118.164 93.3132 118.075C93.3693 117.986 93.446 117.916 93.5433 117.865C93.6413 117.814 93.7528 117.788 93.8778 117.788ZM95.9545 118.947V118.717H97.267V118.947H95.9545ZM95.9545 119.578V119.348H97.267V119.578H95.9545ZM99.611 118.792V119.026H98.6564V118.792H99.611ZM100.751 120.03C100.611 120.03 100.485 120.006 100.375 119.957C100.266 119.909 100.179 119.842 100.114 119.756C100.05 119.669 100.015 119.569 100.01 119.455H100.278C100.284 119.525 100.308 119.586 100.351 119.637C100.393 119.687 100.449 119.726 100.518 119.754C100.587 119.782 100.663 119.795 100.747 119.795C100.841 119.795 100.924 119.779 100.996 119.746C101.069 119.714 101.125 119.668 101.167 119.61C101.208 119.552 101.228 119.484 101.228 119.408C101.228 119.327 101.209 119.257 101.169 119.196C101.129 119.134 101.071 119.086 100.994 119.051C100.917 119.016 100.824 118.999 100.713 118.999H100.538V118.764H100.713C100.799 118.764 100.875 118.749 100.941 118.717C101.007 118.686 101.058 118.642 101.095 118.585C101.133 118.528 101.152 118.462 101.152 118.385C101.152 118.311 101.135 118.247 101.103 118.192C101.07 118.137 101.024 118.095 100.964 118.064C100.905 118.034 100.836 118.018 100.755 118.018C100.68 118.018 100.609 118.032 100.542 118.06C100.476 118.087 100.422 118.126 100.38 118.178C100.339 118.229 100.316 118.291 100.312 118.364H100.057C100.061 118.249 100.095 118.149 100.16 118.063C100.225 117.977 100.309 117.909 100.413 117.861C100.519 117.812 100.634 117.788 100.76 117.788C100.895 117.788 101.01 117.816 101.107 117.87C101.204 117.924 101.278 117.996 101.33 118.085C101.381 118.173 101.407 118.269 101.407 118.372C101.407 118.495 101.375 118.6 101.31 118.686C101.247 118.773 101.16 118.833 101.049 118.866V118.884C101.187 118.906 101.295 118.965 101.372 119.059C101.45 119.153 101.488 119.269 101.488 119.408C101.488 119.526 101.456 119.633 101.391 119.727C101.328 119.821 101.24 119.895 101.129 119.949C101.019 120.003 100.892 120.03 100.751 120.03Z" fill="black"/>
<path d="M98.831 96.0341C98.6946 96.0327 98.5756 95.9957 98.4741 95.9233C98.3725 95.8501 98.2937 95.7496 98.2376 95.6218C98.1815 95.494 98.1534 95.3473 98.1534 95.1818C98.1534 95.0178 98.1829 94.8729 98.2418 94.7472C98.3015 94.6207 98.3835 94.5217 98.4879 94.4499C98.5923 94.3782 98.7124 94.3423 98.848 94.3423C98.9474 94.3423 99.0334 94.3615 99.1058 94.3999C99.1783 94.4375 99.2397 94.4901 99.2901 94.5575C99.3413 94.625 99.3842 94.7024 99.419 94.7898H99.517L99.5554 95.1776L99.7685 96H99.5341L99.3338 95.1776C99.3232 95.1257 99.3068 95.0653 99.2848 94.9964C99.2628 94.9276 99.2333 94.8604 99.1964 94.7951C99.1594 94.7298 99.1122 94.6758 99.0547 94.6332C98.9979 94.5898 98.929 94.5682 98.848 94.5682C98.7614 94.5682 98.6847 94.5945 98.6179 94.647C98.5511 94.6996 98.4989 94.7724 98.4613 94.8654C98.4237 94.9585 98.4048 95.0653 98.4048 95.1861C98.4048 95.304 98.4226 95.4102 98.4581 95.5046C98.4936 95.5984 98.5433 95.6726 98.6072 95.7273C98.6712 95.7812 98.7457 95.8082 98.831 95.8082C98.9098 95.8082 98.9783 95.7866 99.0366 95.7433C99.0948 95.6992 99.1438 95.6442 99.1836 95.5781C99.2234 95.5114 99.2553 95.4428 99.2795 95.3725C99.3043 95.3015 99.3224 95.2393 99.3338 95.1861L99.5128 94.3636H99.7472L99.5554 95.1861L99.517 95.5866H99.4318C99.3949 95.6747 99.3487 95.7528 99.2933 95.821C99.2386 95.8885 99.1729 95.9411 99.0962 95.9787C99.0202 96.0163 98.9318 96.0348 98.831 96.0341ZM101.098 94.7088V94.4787H102.411V94.7088H101.098ZM101.098 95.3395V95.1094H102.411V95.3395H101.098ZM105.424 93.8182V96H105.159V94.0952H105.147L104.614 94.4489V94.1804L105.159 93.8182H105.424ZM98.7543 98.7386H98.9673C99.1165 98.7386 99.2379 98.7702 99.3317 98.8335C99.4261 98.8967 99.4954 98.9769 99.5394 99.0742C99.5842 99.1715 99.6065 99.2713 99.6065 99.3736C99.6065 99.4972 99.5778 99.6087 99.5202 99.7081C99.4627 99.8068 99.3835 99.8853 99.2827 99.9435C99.1818 100.001 99.0668 100.03 98.9375 100.03C98.8587 100.03 98.7805 100.015 98.7031 99.9862C98.6264 99.9563 98.5582 99.8999 98.4986 99.8168L98.4815 99.8253V99.4077C98.4815 99.4773 98.4986 99.5415 98.5327 99.6005C98.5675 99.6594 98.6165 99.7067 98.6797 99.7422C98.7436 99.7777 98.8196 99.7955 98.9077 99.7955C99 99.7955 99.0795 99.7759 99.1463 99.7369C99.2131 99.6978 99.2646 99.6463 99.3008 99.5824C99.337 99.5185 99.3551 99.4489 99.3551 99.3736C99.3551 99.3026 99.3388 99.2354 99.3061 99.1722C99.2741 99.1083 99.2287 99.0565 99.1697 99.0167C99.1115 98.9762 99.0426 98.956 98.9631 98.956H98.7543V98.7386ZM98.8778 97.7884C98.9794 97.7884 99.0692 97.8047 99.1474 97.8374C99.2262 97.87 99.2926 97.9141 99.3466 97.9695C99.4013 98.0241 99.4425 98.0856 99.4702 98.1538C99.4986 98.2219 99.5128 98.2919 99.5128 98.3636C99.5128 98.4531 99.4901 98.5423 99.4446 98.631C99.3991 98.7191 99.3295 98.7926 99.2358 98.8516C99.142 98.9098 99.0227 98.9389 98.8778 98.9389H98.7543V98.7216H98.8736C98.956 98.7216 99.0263 98.7045 99.0845 98.6705C99.1435 98.6364 99.1882 98.592 99.2188 98.5373C99.25 98.4826 99.2656 98.4247 99.2656 98.3636C99.2656 98.2656 99.228 98.1843 99.1527 98.1197C99.0781 98.055 98.9865 98.0227 98.8778 98.0227C98.8054 98.0227 98.739 98.0376 98.6786 98.0675C98.619 98.0973 98.571 98.1388 98.5348 98.1921C98.4993 98.2454 98.4815 98.3068 98.4815 98.3764V100.614H98.2301V98.3764C98.2301 98.2642 98.2578 98.1637 98.3132 98.0749C98.3693 97.9862 98.446 97.9162 98.5433 97.8651C98.6413 97.8139 98.7528 97.7884 98.8778 97.7884ZM100.954 98.9474V98.7173H102.267V98.9474H100.954ZM100.954 99.5781V99.348H102.267V99.5781H100.954ZM104.611 98.7919V99.0263H103.656V98.7919H104.611ZM104.947 100V99.8082L105.667 99.0199C105.751 98.9276 105.821 98.8473 105.876 98.7791C105.93 98.7102 105.971 98.6456 105.997 98.5852C106.024 98.5241 106.037 98.4602 106.037 98.3935C106.037 98.3168 106.019 98.2504 105.982 98.1942C105.946 98.1381 105.896 98.0948 105.833 98.0643C105.77 98.0337 105.699 98.0185 105.62 98.0185C105.536 98.0185 105.463 98.0359 105.4 98.0707C105.339 98.1048 105.291 98.1527 105.257 98.2145C105.223 98.2763 105.206 98.3487 105.206 98.4318H104.955C104.955 98.304 104.985 98.1918 105.044 98.0952C105.102 97.9986 105.183 97.9233 105.284 97.8693C105.387 97.8153 105.501 97.7884 105.628 97.7884C105.756 97.7884 105.869 97.8153 105.968 97.8693C106.067 97.9233 106.144 97.9961 106.2 98.0877C106.257 98.1793 106.285 98.2812 106.285 98.3935C106.285 98.4737 106.27 98.5522 106.241 98.6289C106.213 98.7049 106.163 98.7898 106.092 98.8835C106.021 98.9766 105.924 99.0902 105.799 99.2244L105.309 99.7486V99.7656H106.323V100H104.947Z" fill="black"/>
<path d="M127.831 102.034C127.695 102.033 127.576 101.996 127.474 101.923C127.373 101.85 127.294 101.75 127.238 101.622C127.181 101.494 127.153 101.347 127.153 101.182C127.153 101.018 127.183 100.873 127.242 100.747C127.301 100.621 127.384 100.522 127.488 100.45C127.592 100.378 127.712 100.342 127.848 100.342C127.947 100.342 128.033 100.362 128.106 100.4C128.178 100.437 128.24 100.49 128.29 100.558C128.341 100.625 128.384 100.702 128.419 100.79H128.517L128.555 101.178L128.768 102H128.534L128.334 101.178C128.323 101.126 128.307 101.065 128.285 100.996C128.263 100.928 128.233 100.86 128.196 100.795C128.159 100.73 128.112 100.676 128.055 100.633C127.998 100.59 127.929 100.568 127.848 100.568C127.761 100.568 127.685 100.594 127.618 100.647C127.551 100.7 127.499 100.772 127.461 100.865C127.424 100.958 127.405 101.065 127.405 101.186C127.405 101.304 127.423 101.41 127.458 101.505C127.494 101.598 127.543 101.673 127.607 101.727C127.671 101.781 127.746 101.808 127.831 101.808C127.91 101.808 127.978 101.787 128.037 101.743C128.095 101.699 128.144 101.644 128.184 101.578C128.223 101.511 128.255 101.443 128.279 101.373C128.304 101.301 128.322 101.239 128.334 101.186L128.513 100.364H128.747L128.555 101.186L128.517 101.587H128.432C128.395 101.675 128.349 101.753 128.293 101.821C128.239 101.888 128.173 101.941 128.096 101.979C128.02 102.016 127.932 102.035 127.831 102.034ZM130.098 100.709V100.479H131.411V100.709H130.098ZM130.098 101.339V101.109H131.411V101.339H130.098ZM133.657 102V101.808L134.377 101.02C134.461 100.928 134.531 100.847 134.585 100.779C134.64 100.71 134.681 100.646 134.707 100.585C134.734 100.524 134.747 100.46 134.747 100.393C134.747 100.317 134.729 100.25 134.692 100.194C134.656 100.138 134.606 100.095 134.543 100.064C134.48 100.034 134.409 100.018 134.33 100.018C134.246 100.018 134.173 100.036 134.11 100.071C134.049 100.105 134.001 100.153 133.967 100.214C133.933 100.276 133.916 100.349 133.916 100.432H133.665C133.665 100.304 133.695 100.192 133.753 100.095C133.812 99.9986 133.893 99.9233 133.994 99.8693C134.097 99.8153 134.211 99.7884 134.338 99.7884C134.466 99.7884 134.579 99.8153 134.678 99.8693C134.777 99.9233 134.854 99.9961 134.91 100.088C134.967 100.179 134.995 100.281 134.995 100.393C134.995 100.474 134.98 100.552 134.951 100.629C134.922 100.705 134.873 100.79 134.802 100.884C134.731 100.977 134.634 101.09 134.509 101.224L134.019 101.749V101.766H135.033V102H133.657ZM127.754 104.739H127.967C128.116 104.739 128.238 104.77 128.332 104.833C128.426 104.897 128.495 104.977 128.539 105.074C128.584 105.172 128.607 105.271 128.607 105.374C128.607 105.497 128.578 105.609 128.52 105.708C128.463 105.807 128.384 105.885 128.283 105.944C128.182 106.001 128.067 106.03 127.938 106.03C127.859 106.03 127.781 106.015 127.703 105.986C127.626 105.956 127.558 105.9 127.499 105.817L127.482 105.825V105.408C127.482 105.477 127.499 105.542 127.533 105.6C127.567 105.659 127.616 105.707 127.68 105.742C127.744 105.778 127.82 105.795 127.908 105.795C128 105.795 128.08 105.776 128.146 105.737C128.213 105.698 128.265 105.646 128.301 105.582C128.337 105.518 128.355 105.449 128.355 105.374C128.355 105.303 128.339 105.235 128.306 105.172C128.274 105.108 128.229 105.056 128.17 105.017C128.112 104.976 128.043 104.956 127.963 104.956H127.754V104.739ZM127.878 103.788C127.979 103.788 128.069 103.805 128.147 103.837C128.226 103.87 128.293 103.914 128.347 103.969C128.401 104.024 128.442 104.086 128.47 104.154C128.499 104.222 128.513 104.292 128.513 104.364C128.513 104.453 128.49 104.542 128.445 104.631C128.399 104.719 128.33 104.793 128.236 104.852C128.142 104.91 128.023 104.939 127.878 104.939H127.754V104.722H127.874C127.956 104.722 128.026 104.705 128.085 104.67C128.143 104.636 128.188 104.592 128.219 104.537C128.25 104.483 128.266 104.425 128.266 104.364C128.266 104.266 128.228 104.184 128.153 104.12C128.078 104.055 127.987 104.023 127.878 104.023C127.805 104.023 127.739 104.038 127.679 104.067C127.619 104.097 127.571 104.139 127.535 104.192C127.499 104.245 127.482 104.307 127.482 104.376V106.614H127.23V104.376C127.23 104.264 127.258 104.164 127.313 104.075C127.369 103.986 127.446 103.916 127.543 103.865C127.641 103.814 127.753 103.788 127.878 103.788ZM129.954 104.947V104.717H131.267V104.947H129.954ZM129.954 105.578V105.348H131.267V105.578H129.954ZM133.611 104.792V105.026H132.656V104.792H133.611ZM134.751 106.03C134.611 106.03 134.485 106.006 134.375 105.957C134.266 105.909 134.179 105.842 134.114 105.756C134.05 105.669 134.015 105.569 134.01 105.455H134.278C134.284 105.525 134.308 105.586 134.351 105.637C134.393 105.687 134.449 105.726 134.518 105.754C134.587 105.782 134.663 105.795 134.747 105.795C134.841 105.795 134.924 105.779 134.996 105.746C135.069 105.714 135.125 105.668 135.167 105.61C135.208 105.552 135.228 105.484 135.228 105.408C135.228 105.327 135.209 105.257 135.169 105.196C135.129 105.134 135.071 105.086 134.994 105.051C134.917 105.016 134.824 104.999 134.713 104.999H134.538V104.764H134.713C134.799 104.764 134.875 104.749 134.941 104.717C135.007 104.686 135.058 104.642 135.095 104.585C135.133 104.528 135.152 104.462 135.152 104.385C135.152 104.311 135.135 104.247 135.103 104.192C135.07 104.137 135.024 104.095 134.964 104.064C134.905 104.034 134.836 104.018 134.755 104.018C134.68 104.018 134.609 104.032 134.542 104.06C134.476 104.087 134.422 104.126 134.38 104.178C134.339 104.229 134.316 104.291 134.312 104.364H134.057C134.061 104.249 134.095 104.149 134.16 104.063C134.225 103.977 134.309 103.909 134.413 103.861C134.519 103.812 134.634 103.788 134.76 103.788C134.895 103.788 135.01 103.816 135.107 103.87C135.204 103.924 135.278 103.996 135.33 104.085C135.381 104.173 135.407 104.269 135.407 104.372C135.407 104.495 135.375 104.6 135.31 104.686C135.247 104.773 135.16 104.833 135.049 104.866V104.884C135.187 104.906 135.295 104.965 135.372 105.059C135.45 105.153 135.488 105.269 135.488 105.408C135.488 105.526 135.456 105.633 135.391 105.727C135.328 105.821 135.24 105.895 135.129 105.949C135.019 106.003 134.892 106.03 134.751 106.03Z" fill="black"/>
<path d="M157.831 19.0341C157.695 19.0327 157.576 18.9957 157.474 18.9233C157.373 18.8501 157.294 18.7496 157.238 18.6218C157.181 18.494 157.153 18.3473 157.153 18.1818C157.153 18.0178 157.183 17.8729 157.242 17.7472C157.301 17.6207 157.384 17.5217 157.488 17.4499C157.592 17.3782 157.712 17.3423 157.848 17.3423C157.947 17.3423 158.033 17.3615 158.106 17.3999C158.178 17.4375 158.24 17.4901 158.29 17.5575C158.341 17.625 158.384 17.7024 158.419 17.7898H158.517L158.555 18.1776L158.768 19H158.534L158.334 18.1776C158.323 18.1257 158.307 18.0653 158.285 17.9964C158.263 17.9276 158.233 17.8604 158.196 17.7951C158.159 17.7298 158.112 17.6758 158.055 17.6332C157.998 17.5898 157.929 17.5682 157.848 17.5682C157.761 17.5682 157.685 17.5945 157.618 17.647C157.551 17.6996 157.499 17.7724 157.461 17.8654C157.424 17.9585 157.405 18.0653 157.405 18.1861C157.405 18.304 157.423 18.4102 157.458 18.5046C157.494 18.5984 157.543 18.6726 157.607 18.7273C157.671 18.7812 157.746 18.8082 157.831 18.8082C157.91 18.8082 157.978 18.7866 158.037 18.7433C158.095 18.6992 158.144 18.6442 158.184 18.5781C158.223 18.5114 158.255 18.4428 158.279 18.3725C158.304 18.3015 158.322 18.2393 158.334 18.1861L158.513 17.3636H158.747L158.555 18.1861L158.517 18.5866H158.432C158.395 18.6747 158.349 18.7528 158.293 18.821C158.239 18.8885 158.173 18.9411 158.096 18.9787C158.02 19.0163 157.932 19.0348 157.831 19.0341ZM160.098 17.7088V17.4787H161.411V17.7088H160.098ZM160.098 18.3395V18.1094H161.411V18.3395H160.098ZM162.813 19V18.8082L163.533 18.0199C163.617 17.9276 163.687 17.8473 163.742 17.7791C163.796 17.7102 163.837 17.6456 163.863 17.5852C163.89 17.5241 163.904 17.4602 163.904 17.3935C163.904 17.3168 163.885 17.2504 163.848 17.1942C163.812 17.1381 163.762 17.0948 163.699 17.0643C163.636 17.0337 163.565 17.0185 163.486 17.0185C163.402 17.0185 163.329 17.0359 163.267 17.0707C163.205 17.1048 163.157 17.1527 163.123 17.2145C163.089 17.2763 163.073 17.3487 163.073 17.4318H162.821C162.821 17.304 162.851 17.1918 162.91 17.0952C162.969 16.9986 163.049 16.9233 163.15 16.8693C163.253 16.8153 163.367 16.7884 163.495 16.7884C163.622 16.7884 163.736 16.8153 163.834 16.8693C163.933 16.9233 164.011 16.9961 164.067 17.0877C164.123 17.1793 164.151 17.2812 164.151 17.3935C164.151 17.4737 164.136 17.5522 164.107 17.6289C164.079 17.7049 164.029 17.7898 163.958 17.8835C163.888 17.9766 163.79 18.0902 163.665 18.2244L163.175 18.7486V18.7656H164.189V19H162.813ZM157.754 21.7386H157.967C158.116 21.7386 158.238 21.7702 158.332 21.8335C158.426 21.8967 158.495 21.9769 158.539 22.0742C158.584 22.1715 158.607 22.2713 158.607 22.3736C158.607 22.4972 158.578 22.6087 158.52 22.7081C158.463 22.8068 158.384 22.8853 158.283 22.9435C158.182 23.0011 158.067 23.0298 157.938 23.0298C157.859 23.0298 157.781 23.0153 157.703 22.9862C157.626 22.9563 157.558 22.8999 157.499 22.8168L157.482 22.8253V22.4077C157.482 22.4773 157.499 22.5415 157.533 22.6005C157.567 22.6594 157.616 22.7067 157.68 22.7422C157.744 22.7777 157.82 22.7955 157.908 22.7955C158 22.7955 158.08 22.7759 158.146 22.7369C158.213 22.6978 158.265 22.6463 158.301 22.5824C158.337 22.5185 158.355 22.4489 158.355 22.3736C158.355 22.3026 158.339 22.2354 158.306 22.1722C158.274 22.1083 158.229 22.0565 158.17 22.0167C158.112 21.9762 158.043 21.956 157.963 21.956H157.754V21.7386ZM157.878 20.7884C157.979 20.7884 158.069 20.8047 158.147 20.8374C158.226 20.87 158.293 20.9141 158.347 20.9695C158.401 21.0241 158.442 21.0856 158.47 21.1538C158.499 21.2219 158.513 21.2919 158.513 21.3636C158.513 21.4531 158.49 21.5423 158.445 21.631C158.399 21.7191 158.33 21.7926 158.236 21.8516C158.142 21.9098 158.023 21.9389 157.878 21.9389H157.754V21.7216H157.874C157.956 21.7216 158.026 21.7045 158.085 21.6705C158.143 21.6364 158.188 21.592 158.219 21.5373C158.25 21.4826 158.266 21.4247 158.266 21.3636C158.266 21.2656 158.228 21.1843 158.153 21.1197C158.078 21.055 157.987 21.0227 157.878 21.0227C157.805 21.0227 157.739 21.0376 157.679 21.0675C157.619 21.0973 157.571 21.1388 157.535 21.1921C157.499 21.2454 157.482 21.3068 157.482 21.3764V23.6136H157.23V21.3764C157.23 21.2642 157.258 21.1637 157.313 21.0749C157.369 20.9862 157.446 20.9162 157.543 20.8651C157.641 20.8139 157.753 20.7884 157.878 20.7884ZM159.954 21.7088V21.4787H161.267V21.7088H159.954ZM159.954 22.3395V22.1094H161.267V22.3395H159.954ZM163.436 20.8182V23H163.172V21.0952H163.159L162.627 21.4489V21.1804L163.172 20.8182H163.436Z" fill="black"/>
<path d="M28.831 50.0341C28.6946 50.0327 28.5756 49.9957 28.4741 49.9233C28.3725 49.8501 28.2937 49.7496 28.2376 49.6218C28.1815 49.494 28.1534 49.3473 28.1534 49.1818C28.1534 49.0178 28.1829 48.8729 28.2418 48.7472C28.3015 48.6207 28.3835 48.5217 28.4879 48.4499C28.5923 48.3782 28.7124 48.3423 28.848 48.3423C28.9474 48.3423 29.0334 48.3615 29.1058 48.3999C29.1783 48.4375 29.2397 48.4901 29.2901 48.5575C29.3413 48.625 29.3842 48.7024 29.419 48.7898H29.517L29.5554 49.1776L29.7685 50H29.5341L29.3338 49.1776C29.3232 49.1257 29.3068 49.0653 29.2848 48.9964C29.2628 48.9276 29.2333 48.8604 29.1964 48.7951C29.1594 48.7298 29.1122 48.6758 29.0547 48.6332C28.9979 48.5898 28.929 48.5682 28.848 48.5682C28.7614 48.5682 28.6847 48.5945 28.6179 48.647C28.5511 48.6996 28.4989 48.7724 28.4613 48.8654C28.4237 48.9585 28.4048 49.0653 28.4048 49.1861C28.4048 49.304 28.4226 49.4102 28.4581 49.5046C28.4936 49.5984 28.5433 49.6726 28.6072 49.7273C28.6712 49.7812 28.7457 49.8082 28.831 49.8082C28.9098 49.8082 28.9783 49.7866 29.0366 49.7433C29.0948 49.6992 29.1438 49.6442 29.1836 49.5781C29.2234 49.5114 29.2553 49.4428 29.2795 49.3725C29.3043 49.3015 29.3224 49.2393 29.3338 49.1861L29.5128 48.3636H29.7472L29.5554 49.1861L29.517 49.5866H29.4318C29.3949 49.6747 29.3487 49.7528 29.2933 49.821C29.2386 49.8885 29.1729 49.9411 29.0962 49.9787C29.0202 50.0163 28.9318 50.0348 28.831 50.0341ZM31.098 48.9474V48.7173H32.4105V48.9474H31.098ZM31.098 49.5781V49.348H32.4105V49.5781H31.098ZM34.7545 48.7919V49.0263H33.8V48.7919H34.7545ZM35.0901 50V49.8082L35.8103 49.0199C35.8948 48.9276 35.9644 48.8473 36.0191 48.7791C36.0738 48.7102 36.1143 48.6456 36.1405 48.5852C36.1675 48.5241 36.181 48.4602 36.181 48.3935C36.181 48.3168 36.1626 48.2504 36.1256 48.1942C36.0894 48.1381 36.0397 48.0948 35.9765 48.0643C35.9133 48.0337 35.8422 48.0185 35.7634 48.0185C35.6796 48.0185 35.6064 48.0359 35.5439 48.0707C35.4822 48.1048 35.4342 48.1527 35.4001 48.2145C35.3667 48.2763 35.3501 48.3487 35.3501 48.4318H35.0986C35.0986 48.304 35.1281 48.1918 35.1871 48.0952C35.246 47.9986 35.3263 47.9233 35.4278 47.8693C35.5301 47.8153 35.6448 47.7884 35.7719 47.7884C35.8998 47.7884 36.0131 47.8153 36.1118 47.8693C36.2105 47.9233 36.2879 47.9961 36.344 48.0877C36.4001 48.1793 36.4282 48.2812 36.4282 48.3935C36.4282 48.4737 36.4136 48.5522 36.3845 48.6289C36.3561 48.7049 36.3064 48.7898 36.2354 48.8835C36.165 48.9766 36.0674 49.0902 35.9424 49.2244L35.4523 49.7486V49.7656H36.4665V50H35.0901ZM28.7543 52.7386H28.9673C29.1165 52.7386 29.2379 52.7702 29.3317 52.8335C29.4261 52.8967 29.4954 52.9769 29.5394 53.0742C29.5842 53.1715 29.6065 53.2713 29.6065 53.3736C29.6065 53.4972 29.5778 53.6087 29.5202 53.7081C29.4627 53.8068 29.3835 53.8853 29.2827 53.9435C29.1818 54.0011 29.0668 54.0298 28.9375 54.0298C28.8587 54.0298 28.7805 54.0153 28.7031 53.9862C28.6264 53.9563 28.5582 53.8999 28.4986 53.8168L28.4815 53.8253V53.4077C28.4815 53.4773 28.4986 53.5415 28.5327 53.6005C28.5675 53.6594 28.6165 53.7067 28.6797 53.7422C28.7436 53.7777 28.8196 53.7955 28.9077 53.7955C29 53.7955 29.0795 53.7759 29.1463 53.7369C29.2131 53.6978 29.2646 53.6463 29.3008 53.5824C29.337 53.5185 29.3551 53.4489 29.3551 53.3736C29.3551 53.3026 29.3388 53.2354 29.3061 53.1722C29.2741 53.1083 29.2287 53.0565 29.1697 53.0167C29.1115 52.9762 29.0426 52.956 28.9631 52.956H28.7543V52.7386ZM28.8778 51.7884C28.9794 51.7884 29.0692 51.8047 29.1474 51.8374C29.2262 51.87 29.2926 51.9141 29.3466 51.9695C29.4013 52.0241 29.4425 52.0856 29.4702 52.1538C29.4986 52.2219 29.5128 52.2919 29.5128 52.3636C29.5128 52.4531 29.4901 52.5423 29.4446 52.631C29.3991 52.7191 29.3295 52.7926 29.2358 52.8516C29.142 52.9098 29.0227 52.9389 28.8778 52.9389H28.7543V52.7216H28.8736C28.956 52.7216 29.0263 52.7045 29.0845 52.6705C29.1435 52.6364 29.1882 52.592 29.2188 52.5373C29.25 52.4826 29.2656 52.4247 29.2656 52.3636C29.2656 52.2656 29.228 52.1843 29.1527 52.1197C29.0781 52.055 28.9865 52.0227 28.8778 52.0227C28.8054 52.0227 28.739 52.0376 28.6786 52.0675C28.619 52.0973 28.571 52.1388 28.5348 52.1921C28.4993 52.2454 28.4815 52.3068 28.4815 52.3764V54.6136H28.2301V52.3764C28.2301 52.2642 28.2578 52.1637 28.3132 52.0749C28.3693 51.9862 28.446 51.9162 28.5433 51.8651C28.6413 51.8139 28.7528 51.7884 28.8778 51.7884ZM30.9545 52.7088V52.4787H32.267V52.7088H30.9545ZM30.9545 53.3395V53.1094H32.267V53.3395H30.9545ZM34.513 54V53.8082L35.2331 53.0199C35.3176 52.9276 35.3873 52.8473 35.4419 52.7791C35.4966 52.7102 35.5371 52.6456 35.5634 52.5852C35.5904 52.5241 35.6039 52.4602 35.6039 52.3935C35.6039 52.3168 35.5854 52.2504 35.5485 52.1942C35.5123 52.1381 35.4625 52.0948 35.3993 52.0643C35.3361 52.0337 35.2651 52.0185 35.1863 52.0185C35.1025 52.0185 35.0293 52.0359 34.9668 52.0707C34.905 52.1048 34.8571 52.1527 34.823 52.2145C34.7896 52.2763 34.7729 52.3487 34.7729 52.4318H34.5215C34.5215 52.304 34.551 52.1918 34.6099 52.0952C34.6689 51.9986 34.7491 51.9233 34.8507 51.8693C34.9529 51.8153 35.0676 51.7884 35.1948 51.7884C35.3226 51.7884 35.4359 51.8153 35.5346 51.8693C35.6333 51.9233 35.7108 51.9961 35.7669 52.0877C35.823 52.1793 35.851 52.2812 35.851 52.3935C35.851 52.4737 35.8365 52.5522 35.8074 52.6289C35.7789 52.7049 35.7292 52.7898 35.6582 52.8835C35.5879 52.9766 35.4902 53.0902 35.3652 53.2244L34.8752 53.7486V53.7656H35.8894V54H34.513Z" fill="black"/>
<path d="M6.83097 112.034C6.6946 112.033 6.57564 111.996 6.47408 111.923C6.37251 111.85 6.29368 111.75 6.23757 111.622C6.18146 111.494 6.15341 111.347 6.15341 111.182C6.15341 111.018 6.18288 110.873 6.24183 110.747C6.30149 110.621 6.38352 110.522 6.48793 110.45C6.59233 110.378 6.71236 110.342 6.84801 110.342C6.94744 110.342 7.03338 110.362 7.10582 110.4C7.17827 110.437 7.2397 110.49 7.29013 110.558C7.34126 110.625 7.38423 110.702 7.41903 110.79H7.51705L7.5554 111.178L7.76847 112H7.53409L7.33381 111.178C7.32315 111.126 7.30682 111.065 7.2848 110.996C7.26278 110.928 7.23331 110.86 7.19638 110.795C7.15945 110.73 7.11222 110.676 7.05469 110.633C6.99787 110.59 6.92898 110.568 6.84801 110.568C6.76136 110.568 6.68466 110.594 6.6179 110.647C6.55114 110.7 6.49893 110.772 6.46129 110.865C6.42365 110.958 6.40483 111.065 6.40483 111.186C6.40483 111.304 6.42259 111.41 6.4581 111.505C6.49361 111.598 6.54332 111.673 6.60724 111.727C6.67116 111.781 6.74574 111.808 6.83097 111.808C6.9098 111.808 6.97834 111.787 7.03658 111.743C7.09482 111.699 7.14382 111.644 7.18359 111.578C7.22337 111.511 7.25533 111.443 7.27947 111.373C7.30433 111.301 7.32244 111.239 7.33381 111.186L7.51278 110.364H7.74716L7.5554 111.186L7.51705 111.587H7.43182C7.39489 111.675 7.34872 111.753 7.29332 111.821C7.23864 111.888 7.17294 111.941 7.09624 111.979C7.02024 112.016 6.93182 112.035 6.83097 112.034ZM9.09801 110.947V110.717H10.4105V110.947H9.09801ZM9.09801 111.578V111.348H10.4105V111.578H9.09801ZM12.7545 110.792V111.026H11.8V110.792H12.7545ZM13.0901 112V111.808L13.8103 111.02C13.8948 110.928 13.9644 110.847 14.0191 110.779C14.0738 110.71 14.1143 110.646 14.1405 110.585C14.1675 110.524 14.181 110.46 14.181 110.393C14.181 110.317 14.1626 110.25 14.1256 110.194C14.0894 110.138 14.0397 110.095 13.9765 110.064C13.9133 110.034 13.8422 110.018 13.7634 110.018C13.6796 110.018 13.6064 110.036 13.5439 110.071C13.4822 110.105 13.4342 110.153 13.4001 110.214C13.3667 110.276 13.3501 110.349 13.3501 110.432H13.0986C13.0986 110.304 13.1281 110.192 13.1871 110.095C13.246 109.999 13.3263 109.923 13.4278 109.869C13.5301 109.815 13.6448 109.788 13.7719 109.788C13.8998 109.788 14.0131 109.815 14.1118 109.869C14.2105 109.923 14.2879 109.996 14.344 110.088C14.4001 110.179 14.4282 110.281 14.4282 110.393C14.4282 110.474 14.4136 110.552 14.3845 110.629C14.3561 110.705 14.3064 110.79 14.2354 110.884C14.165 110.977 14.0674 111.09 13.9424 111.224L13.4523 111.749V111.766H14.4665V112H13.0901ZM6.75426 114.739H6.96733C7.11648 114.739 7.23793 114.77 7.33168 114.833C7.42614 114.897 7.49538 114.977 7.53942 115.074C7.58416 115.172 7.60653 115.271 7.60653 115.374C7.60653 115.497 7.57777 115.609 7.52024 115.708C7.46271 115.807 7.38352 115.885 7.28267 115.944C7.18182 116.001 7.06676 116.03 6.9375 116.03C6.85866 116.03 6.78054 116.015 6.70312 115.986C6.62642 115.956 6.55824 115.9 6.49858 115.817L6.48153 115.825V115.408C6.48153 115.477 6.49858 115.542 6.53267 115.6C6.56747 115.659 6.61648 115.707 6.67969 115.742C6.74361 115.778 6.8196 115.795 6.90767 115.795C7 115.795 7.07955 115.776 7.14631 115.737C7.21307 115.698 7.26456 115.646 7.30078 115.582C7.337 115.518 7.35511 115.449 7.35511 115.374C7.35511 115.303 7.33878 115.235 7.30611 115.172C7.27415 115.108 7.22869 115.056 7.16974 115.017C7.11151 114.976 7.04261 114.956 6.96307 114.956H6.75426V114.739ZM6.87784 113.788C6.9794 113.788 7.06925 113.805 7.14737 113.837C7.22621 113.87 7.29261 113.914 7.34659 113.969C7.40128 114.024 7.44247 114.086 7.47017 114.154C7.49858 114.222 7.51278 114.292 7.51278 114.364C7.51278 114.453 7.49006 114.542 7.4446 114.631C7.39915 114.719 7.32955 114.793 7.2358 114.852C7.14205 114.91 7.02273 114.939 6.87784 114.939H6.75426V114.722H6.87358C6.95597 114.722 7.02628 114.705 7.08452 114.67C7.14347 114.636 7.18821 114.592 7.21875 114.537C7.25 114.483 7.26562 114.425 7.26562 114.364C7.26562 114.266 7.22798 114.184 7.1527 114.12C7.07813 114.055 6.98651 114.023 6.87784 114.023C6.8054 114.023 6.73899 114.038 6.67862 114.067C6.61896 114.097 6.57102 114.139 6.5348 114.192C6.49929 114.245 6.48153 114.307 6.48153 114.376V116.614H6.23011V114.376C6.23011 114.264 6.25781 114.164 6.31321 114.075C6.36932 113.986 6.44602 113.916 6.54332 113.865C6.64134 113.814 6.75284 113.788 6.87784 113.788ZM8.95446 114.947V114.717H10.267V114.947H8.95446ZM8.95446 115.578V115.348H10.267V115.578H8.95446ZM13.4547 114.792V115.026H12.5002V114.792H13.4547ZM14.6599 113.818V116H14.3957V114.095H14.3829L13.8502 114.449V114.18L14.3957 113.818H14.6599Z" fill="black"/>
</g>
<defs>
<clipPath id="clip0_1_2">
<rect width="180" height="126" fill="white"/>
</clipPath>
</defs>
</svg>
