<svg width="98" height="63" viewBox="0 0 98 63" fill="none" xmlns="http://www.w3.org/2000/svg">
<rect width="98" height="63" fill="white"/>
<path d="M14.8086 41.3721C14.3984 41.311 14.0536 41.1864 13.7743 40.9982C13.4983 40.8077 13.3113 40.5587 13.2136 40.2512C13.1158 39.9436 13.1336 39.5829 13.2671 39.1691C13.3826 38.8187 13.544 38.5354 13.7514 38.3193C13.962 38.1008 14.2035 37.9357 14.4758 37.8241C14.7481 37.7124 15.0418 37.6399 15.357 37.6064C15.675 37.5734 15.9991 37.5671 16.3292 37.5876C16.7116 37.6044 17.0235 37.6121 17.265 37.6108C17.5093 37.6098 17.6954 37.5844 17.8235 37.5346C17.952 37.4819 18.0391 37.3887 18.0849 37.2547L18.0887 37.2294C18.1702 36.9716 18.1516 36.7592 18.0329 36.5921C17.9174 36.4227 17.7079 36.3153 17.4045 36.2701C17.0842 36.2223 16.8011 36.252 16.5554 36.359C16.3125 36.4664 16.1271 36.6211 15.9993 36.8232L14.3841 36.4446C14.5888 36.073 14.8601 35.7659 15.1978 35.5233C15.5388 35.2783 15.9302 35.1097 16.3719 35.0175C16.814 34.9226 17.295 34.9138 17.8148 34.9913C18.1745 35.0449 18.504 35.1371 18.8033 35.2679C19.1054 35.3991 19.3571 35.5702 19.5583 35.7811C19.7624 35.9925 19.8942 36.2448 19.9539 36.5381C20.0168 36.8289 19.9887 37.1622 19.8695 37.538L18.4895 41.7958L16.7867 41.542L17.0723 40.6669L17.0217 40.6593C16.8539 40.8411 16.6587 40.9944 16.4361 41.1192C16.214 41.2412 15.9672 41.3265 15.6957 41.3751C15.4247 41.4209 15.129 41.4199 14.8086 41.3721ZM15.7141 40.2404C15.9754 40.2794 16.2234 40.2632 16.458 40.1919C16.6959 40.1182 16.8999 40.0021 17.07 39.8436C17.243 39.6856 17.366 39.4957 17.4393 39.2739L17.6513 38.6033C17.5896 38.6314 17.5033 38.6516 17.3924 38.6638C17.2842 38.6764 17.1664 38.6861 17.039 38.693C16.9149 38.6974 16.7895 38.7003 16.6629 38.7015C16.5368 38.7 16.4233 38.7003 16.3224 38.7025C16.1015 38.7011 15.9002 38.7214 15.7188 38.7633C15.5373 38.8052 15.3846 38.8758 15.2607 38.9751C15.1372 39.0716 15.0502 39.2022 14.9998 39.367C14.924 39.6056 14.9538 39.8011 15.089 39.9534C15.2275 40.1033 15.4359 40.1989 15.7141 40.2404Z" fill="#514683"/>
<path d="M45.9513 60.0802L43.6423 51.5401L45.2935 50.7857L46.1687 53.9933L46.2152 53.9721C46.2402 53.767 46.2976 53.544 46.3874 53.3031C46.4786 53.0584 46.6203 52.825 46.8125 52.6029C47.0034 52.3782 47.2655 52.1898 47.5989 52.0375C48.033 51.8391 48.4661 51.7787 48.8981 51.8561C49.329 51.931 49.7207 52.1628 50.0732 52.5515C50.4245 52.9375 50.6991 53.4976 50.8971 54.2318C51.092 54.9454 51.1479 55.5977 51.0649 56.1884C50.9833 56.7754 50.7933 57.2792 50.4951 57.6997C50.1982 58.1164 49.8237 58.4281 49.3715 58.6347C49.0511 58.7811 48.7633 58.8485 48.5082 58.837C48.2557 58.8243 48.0359 58.7639 47.849 58.6556C47.661 58.5448 47.5046 58.4179 47.38 58.2749L47.2986 58.3121L47.5792 59.3364L45.9513 60.0802ZM46.7036 56.1383C46.8085 56.5183 46.9483 56.8277 47.123 57.0665C47.3003 57.3041 47.5026 57.4599 47.7301 57.534C47.959 57.6043 48.2053 57.5793 48.4688 57.4588C48.7402 57.3349 48.9468 57.1514 49.0888 56.9085C49.2323 56.6619 49.3135 56.3749 49.3326 56.0475C49.3506 55.7176 49.3089 55.3666 49.2075 54.9943C49.1048 54.6259 48.9679 54.323 48.797 54.0856C48.6261 53.8482 48.4269 53.6925 48.1994 53.6184C47.9719 53.5443 47.7212 53.5698 47.4473 53.695C47.1811 53.8166 46.9746 53.9968 46.8276 54.2358C46.6832 54.4735 46.5996 54.7553 46.5767 55.0813C46.5564 55.406 46.5987 55.7584 46.7036 56.1383Z" fill="#514683"/>
<path d="M74.7891 37.7872C74.982 37.2697 74.7189 36.6938 74.2014 36.5009L65.7683 33.3571C65.2508 33.1642 64.6749 33.4273 64.482 33.9448C64.2891 34.4623 64.5522 35.0382 65.0697 35.2311L72.5658 38.0256L69.7713 45.5217C69.5784 46.0392 69.8415 46.6151 70.359 46.808C70.8765 47.0009 71.4524 46.7378 71.6453 46.2203L74.7891 37.7872ZM20.6034 62.8658L74.2676 38.3475L73.4365 36.5283L19.7723 61.0467L20.6034 62.8658Z" fill="#514683"/>
<path d="M29.1134 16.4208C28.7953 15.9694 28.1715 15.8613 27.72 16.1794L20.363 21.3635C19.9116 21.6816 19.8035 22.3055 20.1216 22.7569C20.4397 23.2084 21.0636 23.3165 21.515 22.9984L28.0546 18.3903L32.6627 24.9298C32.9808 25.3813 33.6047 25.4894 34.0561 25.1712C34.5076 24.8531 34.6157 24.2293 34.2975 23.7778L29.1134 16.4208ZM21.4283 62.4923L29.2813 17.1675L27.3107 16.8261L19.4577 62.1508L21.4283 62.4923Z" fill="#514683"/>
<path d="M0.825907 2.53129C0.567044 2.62744 0.435138 2.91523 0.531287 3.17409L2.09813 7.39251C2.19428 7.65137 2.48207 7.78327 2.74093 7.68713C2.9998 7.59098 3.1317 7.30318 3.03555 7.04432L1.64281 3.29462L5.39251 1.90187C5.65137 1.80572 5.78327 1.51793 5.68713 1.25907C5.59098 1.0002 5.30318 0.868299 5.04432 0.964448L0.825907 2.53129ZM0.791673 3.45453L96.7917 47.4545L97.2083 46.5455L1.20833 2.54547L0.791673 3.45453Z" fill="#30ED8B"/>
<path d="M52.821 24.1364C52.2557 24.1335 51.7784 23.983 51.3892 23.6847C51.0028 23.3835 50.7287 22.9702 50.5668 22.4446C50.4077 21.9162 50.3849 21.3111 50.4986 20.6293C50.6037 19.9844 50.8182 19.4176 51.142 18.929C51.4688 18.4375 51.8636 18.0554 52.3267 17.7827C52.7926 17.5071 53.2855 17.3693 53.8054 17.3693C54.1719 17.3693 54.4943 17.4361 54.7727 17.5696C55.0511 17.7031 55.2784 17.8892 55.4545 18.1278C55.6307 18.3636 55.7528 18.6364 55.821 18.946L56.3835 18.9034L56.5199 20.7656L56.767 24H55.3523L55.2287 20.5994C55.2202 20.4006 55.1946 20.196 55.152 19.9858C55.1094 19.7756 55.0455 19.5824 54.9602 19.4062C54.875 19.2301 54.7557 19.0881 54.6023 18.9801C54.4517 18.8693 54.2599 18.8139 54.027 18.8139C53.7259 18.8139 53.4517 18.9006 53.2045 19.0739C52.9574 19.2443 52.7486 19.4801 52.5781 19.7812C52.4077 20.0824 52.2898 20.4261 52.2244 20.8125C52.1676 21.1705 52.1676 21.4886 52.2244 21.767C52.2841 22.0455 52.3935 22.2642 52.5526 22.4233C52.7116 22.5824 52.9148 22.6619 53.1619 22.6619C53.4034 22.6619 53.6293 22.5994 53.8395 22.4744C54.0497 22.3466 54.2429 22.1832 54.419 21.9844C54.5952 21.7855 54.7472 21.571 54.875 21.3409C55.0057 21.1108 55.108 20.8935 55.1818 20.6889L56.4048 17.4545H57.8111L56.5497 20.7443L55.7955 22.5085L55.2756 22.5639C55.108 22.8736 54.9048 23.1477 54.6662 23.3864C54.4304 23.6222 54.1577 23.8068 53.848 23.9403C53.5412 24.0739 53.1989 24.1392 52.821 24.1364ZM61.7337 20.5014C61.907 19.4446 62.2081 18.4716 62.6371 17.5824C63.0689 16.6932 63.6385 15.8693 64.3459 15.1108H66.0845C65.8146 15.392 65.5504 15.7358 65.2919 16.142C65.0362 16.5455 64.7976 16.9886 64.576 17.4716C64.3544 17.9545 64.1612 18.4545 63.9964 18.9716C63.8317 19.4858 63.7067 19.9957 63.6214 20.5014C63.5078 21.1747 63.4624 21.8551 63.4851 22.5426C63.5107 23.2273 63.593 23.8636 63.7322 24.4517C63.8743 25.0398 64.0618 25.5213 64.2947 25.8963H62.5604C62.1087 25.1378 61.8146 24.3139 61.6783 23.4247C61.5419 22.5355 61.5604 21.5611 61.7337 20.5014ZM67.5089 24.1236C67.0941 24.1236 66.7347 24.0511 66.4308 23.9062C66.1296 23.7585 65.908 23.5398 65.766 23.25C65.6239 22.9602 65.5884 22.6009 65.6594 22.1719C65.7219 21.8082 65.8398 21.5043 66.0131 21.2599C66.1893 21.0128 66.4038 20.8139 66.6566 20.6634C66.9094 20.5128 67.1893 20.3977 67.4961 20.3182C67.8058 20.2386 68.1254 20.1847 68.4549 20.1562C68.8356 20.1165 69.1452 20.0781 69.3839 20.0412C69.6254 20.0043 69.8058 19.9517 69.9251 19.8835C70.0444 19.8125 70.1168 19.7074 70.1424 19.5682V19.5426C70.185 19.2756 70.1353 19.0682 69.9933 18.9205C69.854 18.7699 69.631 18.6946 69.3242 18.6946C69.0004 18.6946 68.7248 18.7656 68.4975 18.9077C68.2731 19.0497 68.1126 19.2301 68.016 19.4489L66.3626 19.3125C66.5103 18.9148 66.7333 18.571 67.0316 18.2812C67.3327 17.9886 67.695 17.7642 68.1183 17.608C68.5415 17.4489 69.016 17.3693 69.5415 17.3693C69.9052 17.3693 70.2447 17.4119 70.56 17.4972C70.8782 17.5824 71.1523 17.7145 71.3825 17.8935C71.6154 18.0724 71.783 18.3026 71.8853 18.5838C71.9904 18.8622 72.0117 19.196 71.9492 19.5852L71.212 24H69.4904L69.6438 23.0923H69.5927C69.4535 23.2969 69.283 23.4773 69.0813 23.6335C68.8796 23.7869 68.6481 23.9077 68.3867 23.9957C68.1254 24.081 67.8327 24.1236 67.5089 24.1236ZM68.2376 22.8707C68.5018 22.8707 68.7447 22.8182 68.9663 22.7131C69.1907 22.6051 69.3754 22.4602 69.5202 22.2784C69.668 22.0966 69.7617 21.8906 69.8015 21.6605L69.9123 20.9659C69.8555 21.0028 69.7731 21.0355 69.6651 21.0639C69.56 21.0923 69.445 21.1193 69.32 21.1449C69.1978 21.1676 69.0742 21.1889 68.9492 21.2088C68.8242 21.2259 68.712 21.2429 68.6126 21.2599C68.3938 21.2912 68.1978 21.3409 68.0245 21.4091C67.8512 21.4773 67.7106 21.5696 67.6026 21.6861C67.4947 21.7997 67.4279 21.9418 67.4023 22.1122C67.3626 22.3594 67.4208 22.5483 67.5771 22.679C67.7362 22.8068 67.9563 22.8707 68.2376 22.8707ZM80.1918 19.696L79.9574 21.1364H75.973L76.2074 19.696H80.1918ZM83.8342 24L85.283 15.2727H87.0984L86.5614 18.554H86.6126C86.7205 18.3778 86.8654 18.1989 87.0472 18.017C87.2319 17.8324 87.4577 17.679 87.7248 17.5568C87.9918 17.4318 88.3086 17.3693 88.6751 17.3693C89.1523 17.3693 89.5714 17.4943 89.9322 17.7443C90.293 17.9915 90.5529 18.3651 90.712 18.8651C90.8711 19.3622 90.8881 19.9858 90.7631 20.7358C90.6438 21.4659 90.4237 22.0824 90.1026 22.5852C89.7844 23.0852 89.4023 23.4645 88.9563 23.723C88.5131 23.9787 88.043 24.1065 87.5458 24.1065C87.1935 24.1065 86.9038 24.0483 86.6765 23.9318C86.4521 23.8153 86.2773 23.669 86.1523 23.4929C86.0273 23.3139 85.9379 23.1335 85.8839 22.9517H85.7944L85.6239 24H83.8342ZM86.1566 20.7273C86.0941 21.1165 86.0927 21.456 86.1523 21.7457C86.2148 22.0355 86.3342 22.2614 86.5103 22.4233C86.6893 22.5824 86.9237 22.6619 87.2134 22.6619C87.5117 22.6619 87.7759 22.581 88.006 22.419C88.239 22.2543 88.4322 22.027 88.5856 21.7372C88.739 21.4446 88.8469 21.108 88.9094 20.7273C88.9691 20.3494 88.9705 20.017 88.9137 19.7301C88.8569 19.4432 88.7404 19.2187 88.5643 19.0568C88.3881 18.8949 88.1495 18.8139 87.8484 18.8139C87.5558 18.8139 87.293 18.892 87.06 19.0483C86.8299 19.2045 86.6367 19.4261 86.4805 19.7131C86.3271 20 86.2191 20.3381 86.1566 20.7273ZM94.9084 20.5014C94.7351 21.5611 94.4325 22.5355 94.0007 23.4247C93.5717 24.3139 93.0021 25.1378 92.2919 25.8963H90.5575C90.8274 25.6151 91.0902 25.2713 91.3459 24.8651C91.6016 24.4588 91.8402 24.0156 92.0618 23.5355C92.2862 23.0526 92.4808 22.5526 92.6456 22.0355C92.8104 21.5185 92.9354 21.0071 93.0206 20.5014C93.1342 19.8281 93.1783 19.1491 93.1527 18.4645C93.13 17.777 93.0476 17.1406 92.9055 16.5554C92.7663 15.9673 92.5788 15.4858 92.343 15.1108H94.0774C94.532 15.8693 94.8274 16.6932 94.9638 17.5824C95.1001 18.4716 95.0817 19.4446 94.9084 20.5014Z" fill="#30ED8B"/>
<circle cx="75.5" cy="37.5" r="0.5" fill="#514683"/>
<circle cx="28.5" cy="15.5" r="0.5" fill="#514683"/>
<circle cx="47.5" cy="24.5" r="0.5" fill="#514683"/>
<circle cx="4.5" cy="4.5" r="0.5" fill="#514683"/>
<circle cx="97.5" cy="47.5" r="0.5" fill="#514683"/>
</svg>
