<svg width="119" height="98" viewBox="0 0 119 98" fill="none" xmlns="http://www.w3.org/2000/svg">
<path d="M20.7762 34.3843C20.4114 34.187 20.1298 33.9523 19.9314 33.6802C19.7368 33.407 19.646 33.1091 19.6589 32.7867C19.6719 32.4642 19.8116 32.1312 20.0782 31.7877C20.3062 31.4976 20.5545 31.2864 20.8232 31.1539C21.0957 31.0204 21.379 30.9475 21.673 30.9354C21.9671 30.9233 22.2679 30.9552 22.5756 31.0312C22.8858 31.1086 23.1926 31.2132 23.496 31.345C23.8498 31.4912 24.1404 31.6048 24.3678 31.6858C24.5978 31.7683 24.7815 31.8079 24.9189 31.8047C25.0576 31.799 25.1713 31.741 25.26 31.6307L25.2722 31.6082C25.4368 31.3936 25.4917 31.1876 25.4371 30.9901C25.3863 30.7914 25.2259 30.6191 24.9561 30.4731C24.6712 30.319 24.3951 30.2503 24.1276 30.2671C23.8626 30.2853 23.6356 30.3676 23.4465 30.514L22.0572 29.6073C22.3764 29.3278 22.7361 29.1316 23.1363 29.0186C23.5404 28.9046 23.9658 28.8795 24.4124 28.9435C24.8604 29.005 25.3156 29.1608 25.7778 29.4108C26.0977 29.5839 26.376 29.7829 26.6128 30.0079C26.8521 30.2342 27.0304 30.4809 27.1476 30.7478C27.2673 31.016 27.3053 31.2982 27.2614 31.5942C27.2214 31.8891 27.0813 32.1928 26.8411 32.5054L24.0921 36.0376L22.5779 35.2185L23.1447 34.4931L23.0997 34.4688C22.8799 34.5825 22.6442 34.66 22.3924 34.7015C22.142 34.7405 21.8809 34.7365 21.6091 34.6896C21.3387 34.6402 21.0611 34.5384 20.7762 34.3843ZM22.0133 33.6291C22.2456 33.7548 22.4843 33.8242 22.7292 33.8372C22.978 33.849 23.2093 33.8094 23.4233 33.7185C23.6397 33.6288 23.8202 33.4923 23.9646 33.3088L24.3926 32.7506C24.325 32.756 24.237 32.7456 24.1286 32.7192C24.0226 32.6942 23.9086 32.6632 23.7865 32.6262C23.6682 32.588 23.5494 32.548 23.43 32.506C23.3119 32.4615 23.2051 32.4231 23.1095 32.3908C22.9023 32.3142 22.7062 32.2646 22.5213 32.2422C22.3365 32.2197 22.1688 32.234 22.0185 32.2851C21.8695 32.3336 21.7431 32.4268 21.6396 32.5646C21.487 32.763 21.4483 32.9569 21.5235 33.1462C21.6026 33.3343 21.7659 33.4953 22.0133 33.6291Z" fill="#514683"/>
<path d="M11.8825 59.5128C11.2903 59.1924 10.8707 58.8039 10.6236 58.3472C10.3803 57.8893 10.3034 57.3956 10.393 56.8658C10.485 56.3375 10.7372 55.8085 11.1496 55.2791C11.5636 54.7407 12.0421 54.331 12.585 54.0498C13.1293 53.766 13.7014 53.625 14.3014 53.6265C14.9052 53.6269 15.4981 53.7846 16.0803 54.0996C16.5826 54.3713 16.958 54.6923 17.2067 55.0626C17.4553 55.4329 17.5716 55.8269 17.5556 56.2446C17.5396 56.6623 17.385 57.0793 17.092 57.4957L15.589 56.6826C15.7456 56.3991 15.7969 56.1281 15.743 55.8696C15.689 55.6111 15.5171 55.4034 15.2273 55.2466C14.9774 55.1114 14.711 55.0545 14.4281 55.0759C14.1491 55.0962 13.8682 55.1945 13.5854 55.371C13.3051 55.5488 13.0382 55.8033 12.7847 56.1345C12.526 56.4694 12.3558 56.7811 12.2741 57.0695C12.1923 57.358 12.1961 57.6136 12.2855 57.8364C12.375 58.0592 12.5434 58.2375 12.7907 58.3713C12.9756 58.4713 13.1671 58.5265 13.365 58.5367C13.5655 58.5482 13.7642 58.5152 13.9612 58.4377C14.1596 58.3576 14.346 58.234 14.5204 58.0667L16.0271 58.8818C15.6854 59.2687 15.2898 59.5553 14.8401 59.7416C14.393 59.9293 13.9163 60.0074 13.4102 59.9758C12.904 59.9442 12.3948 59.7899 11.8825 59.5128Z" fill="#514683"/>
<path d="M43.541 77.6035C43.1012 77.3656 42.7835 77.0483 42.5878 76.6518C42.3959 76.2541 42.3515 75.7989 42.4545 75.2861C42.5613 74.7722 42.8422 74.2232 43.297 73.6391C43.7638 73.039 44.2579 72.5973 44.7793 72.3141C45.3021 72.0284 45.8172 71.8823 46.3246 71.8758C46.8333 71.8668 47.2988 71.9765 47.7211 72.205C48.041 72.378 48.2698 72.5729 48.4078 72.7896C48.5495 73.0052 48.6302 73.2233 48.6498 73.4438C48.6707 73.6618 48.6605 73.8598 48.6192 74.0377L48.6679 74.0641L50.7127 71.4396L52.3056 72.3014L46.8787 79.288L45.3045 78.4364L45.957 77.5975L45.8895 77.561C45.703 77.6669 45.4848 77.7539 45.2347 77.8221C44.9885 77.8891 44.7215 77.911 44.4337 77.8878C44.1484 77.8659 43.8508 77.7711 43.541 77.6035ZM44.933 76.7141C45.1878 76.852 45.4556 76.9064 45.7361 76.8773C46.0181 76.8457 46.298 76.7403 46.5758 76.5611C46.8536 76.382 47.1126 76.1361 47.3527 75.8235C47.5954 75.5123 47.7575 75.2156 47.839 74.9335C47.9206 74.6514 47.9186 74.3984 47.833 74.1744C47.7499 73.9518 47.5785 73.7703 47.3186 73.6297C47.0562 73.4877 46.7853 73.4332 46.5059 73.4662C46.2289 73.5005 45.956 73.608 45.687 73.7887C45.4206 73.9708 45.17 74.2131 44.9352 74.5157C44.6991 74.8208 44.5352 75.1149 44.4434 75.3979C44.353 75.6785 44.3461 75.9331 44.4226 76.1618C44.5005 76.3881 44.6706 76.5722 44.933 76.7141Z" fill="#514683"/>
<path d="M74.4099 95.2621C73.8202 94.9431 73.3965 94.5589 73.139 94.1095C72.8828 93.6576 72.7957 93.1679 72.8775 92.6405C72.9632 92.1119 73.2215 91.5718 73.6524 91.02C74.0727 90.4819 74.555 90.0709 75.0994 89.7872C75.6462 89.5049 76.217 89.3631 76.812 89.362C77.4069 89.3608 77.9867 89.513 78.5514 89.8185C78.9312 90.024 79.2417 90.2711 79.4828 90.5598C79.7278 90.8473 79.8864 91.1689 79.9589 91.5247C80.0326 91.8779 80.0083 92.2572 79.8859 92.6625C79.766 93.0693 79.5336 93.4959 79.1887 93.9423L78.8803 94.3423L74.0228 91.7145L74.7118 90.8082L78.07 92.6249C78.2319 92.4153 78.327 92.2036 78.3556 91.9897C78.3841 91.7758 78.3466 91.5763 78.2433 91.3912C78.1413 91.2035 77.9754 91.0476 77.7455 90.9232C77.5106 90.7961 77.2596 90.7347 76.9926 90.7388C76.7255 90.7428 76.4713 90.8007 76.23 90.9125C75.9925 91.023 75.795 91.1762 75.6374 91.3719L74.93 92.2586C74.7165 92.5339 74.5906 92.7905 74.5525 93.0282C74.5168 93.2673 74.5606 93.4848 74.6839 93.6807C74.8086 93.8742 75.0072 94.0445 75.2795 94.1919C75.4569 94.2879 75.6366 94.3528 75.8186 94.3866C76.003 94.4218 76.1828 94.4238 76.358 94.3926C76.5345 94.3588 76.7013 94.2892 76.8586 94.1837L78.2638 95.0699C77.937 95.3517 77.5644 95.5507 77.1463 95.6669C76.7295 95.7806 76.2876 95.8063 75.8205 95.7443C75.3573 95.681 74.8871 95.5203 74.4099 95.2621Z" fill="#514683"/>
<path d="M38.2772 35.137L43.8848 28.2945L45.4583 29.1997L43.3568 31.7762L43.4011 31.8017C43.5825 31.7028 43.7974 31.6199 44.0456 31.553C44.2978 31.485 44.57 31.4646 44.8624 31.4919C45.1562 31.5167 45.462 31.6205 45.7796 31.8032C46.1933 32.0412 46.4942 32.3585 46.6823 32.7551C46.8718 33.1492 46.9109 33.6027 46.7995 34.1154C46.6895 34.6257 46.3933 35.1747 45.911 35.7625C45.4435 36.3359 44.9453 36.7605 44.4163 37.0363C43.8912 37.311 43.3708 37.4493 42.8553 37.4509C42.3437 37.4516 41.8724 37.328 41.4414 37.0801C41.1361 36.9044 40.9139 36.7094 40.775 36.4952C40.6385 36.2823 40.56 36.0683 40.5395 35.8533C40.5204 35.6359 40.5328 35.4349 40.5767 35.2504L40.4991 35.2057L39.8286 36.0294L38.2772 35.137ZM41.9222 33.4582C41.674 33.7644 41.5035 34.0579 41.4107 34.3389C41.3204 34.6212 41.3112 34.8765 41.3831 35.1047C41.4589 35.3318 41.6224 35.5176 41.8736 35.6621C42.1322 35.8109 42.4016 35.8724 42.6818 35.8468C42.9659 35.8201 43.2467 35.7194 43.5241 35.5448C43.803 35.3676 44.0644 35.1296 44.3084 34.8308C44.5485 34.533 44.7155 34.2456 44.8093 33.9686C44.9032 33.6915 44.9141 33.4389 44.8422 33.2107C44.7702 32.9825 44.6037 32.7934 44.3427 32.6432C44.0891 32.4973 43.8223 32.434 43.5425 32.4533C43.2651 32.474 42.9872 32.5697 42.7087 32.7405C42.4326 32.9128 42.1705 33.152 41.9222 33.4582Z" fill="#514683"/>
<path d="M56.7586 21.8503C56.6134 21.3175 56.0637 21.0032 55.5308 21.1484L46.8474 23.5143C46.3145 23.6595 46.0003 24.2092 46.1455 24.7421C46.2906 25.2749 46.8403 25.5892 47.3732 25.444L55.0918 23.3409L57.1948 31.0596C57.34 31.5924 57.8897 31.9067 58.4226 31.7615C58.9554 31.6163 59.2697 31.0667 59.1245 30.5338L56.7586 21.8503ZM34.5844 61.2233L56.6619 22.6096L54.9256 21.6169L32.8482 60.2306L34.5844 61.2233Z" fill="#514683"/>
<path d="M26.9176 4.46128C26.4781 4.12676 25.8507 4.21182 25.5162 4.65127L20.0649 11.8125C19.7304 12.252 19.8154 12.8794 20.2549 13.2139C20.6943 13.5484 21.3218 13.4634 21.6563 13.0239L26.5019 6.65837L32.8674 11.504C33.3069 11.8385 33.9343 11.7534 34.2688 11.314C34.6033 10.8745 34.5183 10.2471 34.0788 9.91258L26.9176 4.46128ZM34.8741 60.9687L27.3028 5.12263L25.3209 5.39132L32.8923 61.2374L34.8741 60.9687Z" fill="#514683"/>
<path d="M21.9526 1L118.243 56.0544" stroke="#30ED8B"/>
<path d="M74.6629 84.4003C75.1958 84.2552 75.51 83.7055 75.3648 83.1726L72.9989 74.4892C72.8537 73.9563 72.304 73.642 71.7712 73.7872C71.2383 73.9324 70.9241 74.4821 71.0692 75.0149L73.1723 82.7336L65.4537 84.8366C64.9208 84.9818 64.6065 85.5315 64.7517 86.0643C64.8969 86.5972 65.4466 86.9115 65.9794 86.7663L74.6629 84.4003ZM32.6242 60.702L73.9037 84.3036L74.8964 82.5674L33.6169 58.9658L32.6242 60.702Z" fill="#514683"/>
<path d="M0.737117 40.5042C0.204258 40.6493 -0.110014 41.199 0.0351724 41.7319L2.40112 50.4153C2.5463 50.9482 3.09597 51.2624 3.62883 51.1173C4.16169 50.9721 4.47596 50.4224 4.33077 49.8895L2.22771 42.1709L9.94633 40.0679C10.4792 39.9227 10.7935 39.373 10.6483 38.8402C10.5031 38.3073 9.95343 37.993 9.42057 38.1382L0.737117 40.5042ZM0.50365 42.3371L33.4923 61.1984L34.485 59.4622L1.49635 40.6009L0.50365 42.3371Z" fill="#514683"/>
<path d="M90.7013 93.5703C91.2341 93.4251 91.5484 92.8755 91.4032 92.3426L89.0373 83.6591C88.8921 83.1263 88.3424 82.812 87.8096 82.9572C87.2767 83.1024 86.9624 83.6521 87.1076 84.1849L89.2107 91.9035L81.4921 94.0066C80.9592 94.1518 80.6449 94.7014 80.7901 95.2343C80.9353 95.7672 81.485 96.0814 82.0178 95.9363L90.7013 93.5703ZM33.4923 61.1984L89.942 93.4736L90.9347 91.7374L34.485 59.4622L33.4923 61.1984Z" fill="#514683"/>
<line x1="54.1423" y1="68.3974" x2="50.6679" y2="74.4743" stroke="black"/>
<line x1="76.4781" y1="29.3319" x2="73.0036" y2="35.4088" stroke="black"/>
<line x1="55.8786" y1="69.3901" x2="52.4041" y2="75.467" stroke="black"/>
<line x1="78.2143" y1="30.3246" x2="74.7399" y2="36.4015" stroke="black"/>
</svg>
