<svg width="80" height="60" viewBox="0 0 80 60" fill="none" xmlns="http://www.w3.org/2000/svg">
<rect width="80" height="60" fill="white"/>
<path opacity="0.29" d="M2.02841 35.1236C1.61364 35.1236 1.25426 35.0511 0.950284 34.9062C0.649148 34.7585 0.427557 34.5398 0.285511 34.25C0.143466 33.9602 0.107955 33.6009 0.178977 33.1719C0.241477 32.8082 0.359375 32.5043 0.53267 32.2599C0.708807 32.0128 0.923295 31.8139 1.17614 31.6634C1.42898 31.5128 1.70881 31.3977 2.01562 31.3182C2.32528 31.2386 2.64489 31.1847 2.97443 31.1562C3.35511 31.1165 3.66477 31.0781 3.90341 31.0412C4.14489 31.0043 4.32528 30.9517 4.4446 30.8835C4.56392 30.8125 4.63636 30.7074 4.66193 30.5682V30.5426C4.70455 30.2756 4.65483 30.0682 4.51278 29.9205C4.37358 29.7699 4.15057 29.6946 3.84375 29.6946C3.51989 29.6946 3.24432 29.7656 3.01705 29.9077C2.79261 30.0497 2.6321 30.2301 2.53551 30.4489L0.882102 30.3125C1.02983 29.9148 1.25284 29.571 1.55114 29.2812C1.85227 28.9886 2.21449 28.7642 2.63778 28.608C3.06108 28.4489 3.53551 28.3693 4.06108 28.3693C4.42472 28.3693 4.7642 28.4119 5.07955 28.4972C5.39773 28.5824 5.67188 28.7145 5.90199 28.8935C6.13494 29.0724 6.30256 29.3026 6.40483 29.5838C6.50994 29.8622 6.53125 30.196 6.46875 30.5852L5.73153 35H4.00994L4.16335 34.0923H4.11222C3.97301 34.2969 3.80256 34.4773 3.60085 34.6335C3.39915 34.7869 3.16761 34.9077 2.90625 34.9957C2.64489 35.081 2.35227 35.1236 2.02841 35.1236ZM2.7571 33.8707C3.02131 33.8707 3.2642 33.8182 3.4858 33.7131C3.71023 33.6051 3.89489 33.4602 4.03977 33.2784C4.1875 33.0966 4.28125 32.8906 4.32102 32.6605L4.43182 31.9659C4.375 32.0028 4.29261 32.0355 4.18466 32.0639C4.07955 32.0923 3.96449 32.1193 3.83949 32.1449C3.71733 32.1676 3.59375 32.1889 3.46875 32.2088C3.34375 32.2259 3.23153 32.2429 3.1321 32.2599C2.91335 32.2912 2.71733 32.3409 2.54403 32.4091C2.37074 32.4773 2.23011 32.5696 2.12216 32.6861C2.0142 32.7997 1.94744 32.9418 1.92188 33.1122C1.8821 33.3594 1.94034 33.5483 2.09659 33.679C2.25568 33.8068 2.47585 33.8707 2.7571 33.8707Z" fill="#514683"/>
<path d="M73.0284 33.1236C72.6136 33.1236 72.2543 33.0511 71.9503 32.9062C71.6491 32.7585 71.4276 32.5398 71.2855 32.25C71.1435 31.9602 71.108 31.6009 71.179 31.1719C71.2415 30.8082 71.3594 30.5043 71.5327 30.2599C71.7088 30.0128 71.9233 29.8139 72.1761 29.6634C72.429 29.5128 72.7088 29.3977 73.0156 29.3182C73.3253 29.2386 73.6449 29.1847 73.9744 29.1562C74.3551 29.1165 74.6648 29.0781 74.9034 29.0412C75.1449 29.0043 75.3253 28.9517 75.4446 28.8835C75.5639 28.8125 75.6364 28.7074 75.6619 28.5682V28.5426C75.7045 28.2756 75.6548 28.0682 75.5128 27.9205C75.3736 27.7699 75.1506 27.6946 74.8438 27.6946C74.5199 27.6946 74.2443 27.7656 74.017 27.9077C73.7926 28.0497 73.6321 28.2301 73.5355 28.4489L71.8821 28.3125C72.0298 27.9148 72.2528 27.571 72.5511 27.2812C72.8523 26.9886 73.2145 26.7642 73.6378 26.608C74.0611 26.4489 74.5355 26.3693 75.0611 26.3693C75.4247 26.3693 75.7642 26.4119 76.0795 26.4972C76.3977 26.5824 76.6719 26.7145 76.902 26.8935C77.1349 27.0724 77.3026 27.3026 77.4048 27.5838C77.5099 27.8622 77.5312 28.196 77.4688 28.5852L76.7315 33H75.0099L75.1634 32.0923H75.1122C74.973 32.2969 74.8026 32.4773 74.6009 32.6335C74.3991 32.7869 74.1676 32.9077 73.9062 32.9957C73.6449 33.081 73.3523 33.1236 73.0284 33.1236ZM73.7571 31.8707C74.0213 31.8707 74.2642 31.8182 74.4858 31.7131C74.7102 31.6051 74.8949 31.4602 75.0398 31.2784C75.1875 31.0966 75.2813 30.8906 75.321 30.6605L75.4318 29.9659C75.375 30.0028 75.2926 30.0355 75.1847 30.0639C75.0795 30.0923 74.9645 30.1193 74.8395 30.1449C74.7173 30.1676 74.5938 30.1889 74.4688 30.2088C74.3438 30.2259 74.2315 30.2429 74.1321 30.2599C73.9134 30.2912 73.7173 30.3409 73.544 30.4091C73.3707 30.4773 73.2301 30.5696 73.1222 30.6861C73.0142 30.7997 72.9474 30.9418 72.9219 31.1122C72.8821 31.3594 72.9403 31.5483 73.0966 31.679C73.2557 31.8068 73.4759 31.8707 73.7571 31.8707Z" fill="#514683"/>
<path d="M34.2131 58L35.6619 49.2727H37.4773L36.9403 52.554H36.9915C37.0994 52.3778 37.2443 52.1989 37.4261 52.017C37.6108 51.8324 37.8366 51.679 38.1037 51.5568C38.3707 51.4318 38.6875 51.3693 39.054 51.3693C39.5313 51.3693 39.9503 51.4943 40.3111 51.7443C40.6719 51.9915 40.9318 52.3651 41.0909 52.8651C41.25 53.3622 41.267 53.9858 41.142 54.7358C41.0227 55.4659 40.8026 56.0824 40.4815 56.5852C40.1634 57.0852 39.7813 57.4645 39.3352 57.723C38.892 57.9787 38.4219 58.1065 37.9247 58.1065C37.5724 58.1065 37.2827 58.0483 37.0554 57.9318C36.831 57.8153 36.6562 57.669 36.5312 57.4929C36.4062 57.3139 36.3168 57.1335 36.2628 56.9517H36.1733L36.0028 58H34.2131ZM36.5355 54.7273C36.473 55.1165 36.4716 55.456 36.5312 55.7457C36.5938 56.0355 36.7131 56.2614 36.8892 56.4233C37.0682 56.5824 37.3026 56.6619 37.5923 56.6619C37.8906 56.6619 38.1548 56.581 38.3849 56.419C38.6179 56.2543 38.8111 56.027 38.9645 55.7372C39.1179 55.4446 39.2259 55.108 39.2884 54.7273C39.348 54.3494 39.3494 54.017 39.2926 53.7301C39.2358 53.4432 39.1193 53.2187 38.9432 53.0568C38.767 52.8949 38.5284 52.8139 38.2273 52.8139C37.9347 52.8139 37.6719 52.892 37.4389 53.0483C37.2088 53.2045 37.0156 53.4261 36.8594 53.7131C36.706 54 36.598 54.3381 36.5355 54.7273Z" fill="#514683"/>
<path d="M35.0284 38.1236C34.6136 38.1236 34.2543 38.0511 33.9503 37.9062C33.6491 37.7585 33.4276 37.5398 33.2855 37.25C33.1435 36.9602 33.108 36.6009 33.179 36.1719C33.2415 35.8082 33.3594 35.5043 33.5327 35.2599C33.7088 35.0128 33.9233 34.8139 34.1761 34.6634C34.429 34.5128 34.7088 34.3977 35.0156 34.3182C35.3253 34.2386 35.6449 34.1847 35.9744 34.1562C36.3551 34.1165 36.6648 34.0781 36.9034 34.0412C37.1449 34.0043 37.3253 33.9517 37.4446 33.8835C37.5639 33.8125 37.6364 33.7074 37.6619 33.5682V33.5426C37.7045 33.2756 37.6548 33.0682 37.5128 32.9205C37.3736 32.7699 37.1506 32.6946 36.8438 32.6946C36.5199 32.6946 36.2443 32.7656 36.017 32.9077C35.7926 33.0497 35.6321 33.2301 35.5355 33.4489L33.8821 33.3125C34.0298 32.9148 34.2528 32.571 34.5511 32.2812C34.8523 31.9886 35.2145 31.7642 35.6378 31.608C36.0611 31.4489 36.5355 31.3693 37.0611 31.3693C37.4247 31.3693 37.7642 31.4119 38.0795 31.4972C38.3977 31.5824 38.6719 31.7145 38.902 31.8935C39.1349 32.0724 39.3026 32.3026 39.4048 32.5838C39.5099 32.8622 39.5312 33.196 39.4688 33.5852L38.7315 38H37.0099L37.1634 37.0923H37.1122C36.973 37.2969 36.8026 37.4773 36.6009 37.6335C36.3991 37.7869 36.1676 37.9077 35.9062 37.9957C35.6449 38.081 35.3523 38.1236 35.0284 38.1236ZM35.7571 36.8707C36.0213 36.8707 36.2642 36.8182 36.4858 36.7131C36.7102 36.6051 36.8949 36.4602 37.0398 36.2784C37.1875 36.0966 37.2813 35.8906 37.321 35.6605L37.4318 34.9659C37.375 35.0028 37.2926 35.0355 37.1847 35.0639C37.0795 35.0923 36.9645 35.1193 36.8395 35.1449C36.7173 35.1676 36.5938 35.1889 36.4688 35.2088C36.3438 35.2259 36.2315 35.2429 36.1321 35.2599C35.9134 35.2912 35.7173 35.3409 35.544 35.4091C35.3707 35.4773 35.2301 35.5696 35.1222 35.6861C35.0142 35.7997 34.9474 35.9418 34.9219 36.1122C34.8821 36.3594 34.9403 36.5483 35.0966 36.679C35.2557 36.8068 35.4759 36.8707 35.7571 36.8707ZM42.8118 37.527L43.8047 31.4929H45.3388L44.3416 37.527H42.8118ZM40.924 35.2727L41.1839 33.7472H47.218L46.9581 35.2727H40.924ZM48.3303 38L49.7791 29.2727H51.5945L51.0575 32.554H51.1087C51.2166 32.3778 51.3615 32.1989 51.5433 32.017C51.728 31.8324 51.9538 31.679 52.2209 31.5568C52.4879 31.4318 52.8047 31.3693 53.1712 31.3693C53.6484 31.3693 54.0675 31.4943 54.4283 31.7443C54.7891 31.9915 55.049 32.3651 55.2081 32.8651C55.3672 33.3622 55.3842 33.9858 55.2592 34.7358C55.1399 35.4659 54.9197 36.0824 54.5987 36.5852C54.2805 37.0852 53.8984 37.4645 53.4524 37.723C53.0092 37.9787 52.5391 38.1065 52.0419 38.1065C51.6896 38.1065 51.3999 38.0483 51.1726 37.9318C50.9482 37.8153 50.7734 37.669 50.6484 37.4929C50.5234 37.3139 50.4339 37.1335 50.38 36.9517H50.2905L50.12 38H48.3303ZM50.6527 34.7273C50.5902 35.1165 50.5888 35.456 50.6484 35.7457C50.7109 36.0355 50.8303 36.2614 51.0064 36.4233C51.1854 36.5824 51.4197 36.6619 51.7095 36.6619C52.0078 36.6619 52.272 36.581 52.5021 36.419C52.7351 36.2543 52.9283 36.027 53.0817 35.7372C53.2351 35.4446 53.343 35.108 53.4055 34.7273C53.4652 34.3494 53.4666 34.017 53.4098 33.7301C53.353 33.4432 53.2365 33.2187 53.0604 33.0568C52.8842 32.8949 52.6456 32.8139 52.3445 32.8139C52.0518 32.8139 51.7891 32.892 51.5561 33.0483C51.326 33.2045 51.1328 33.4261 50.9766 33.7131C50.8232 34 50.7152 34.3381 50.6527 34.7273Z" fill="#30ED8B"/>
<path d="M69.7071 49.7071C70.0976 49.3166 70.0976 48.6834 69.7071 48.2929L63.3431 41.9289C62.9526 41.5384 62.3195 41.5384 61.9289 41.9289C61.5384 42.3195 61.5384 42.9526 61.9289 43.3431L67.5858 49L61.9289 54.6569C61.5384 55.0474 61.5384 55.6805 61.9289 56.0711C62.3195 56.4616 62.9526 56.4616 63.3431 56.0711L69.7071 49.7071ZM10 50H69V48H10V50Z" fill="#514683"/>
<path opacity="0.29" d="M10.7071 3.29289C10.3166 2.90237 9.68342 2.90237 9.29289 3.29289L2.92893 9.65685C2.53841 10.0474 2.53841 10.6805 2.92893 11.0711C3.31946 11.4616 3.95262 11.4616 4.34315 11.0711L10 5.41421L15.6569 11.0711C16.0474 11.4616 16.6805 11.4616 17.0711 11.0711C17.4616 10.6805 17.4616 10.0474 17.0711 9.65685L10.7071 3.29289ZM11 50L11 4H9L9 50H11Z" fill="#514683"/>
<path d="M68.7071 2.29289C68.3166 1.90237 67.6834 1.90237 67.2929 2.29289L60.9289 8.65685C60.5384 9.04738 60.5384 9.68054 60.9289 10.0711C61.3195 10.4616 61.9526 10.4616 62.3431 10.0711L68 4.41421L73.6569 10.0711C74.0474 10.4616 74.6805 10.4616 75.0711 10.0711C75.4616 9.68054 75.4616 9.04738 75.0711 8.65685L68.7071 2.29289ZM69 49V3H67V49H69Z" fill="#514683"/>
<path d="M68.9927 3.12047C69.0593 2.57221 68.6687 2.07382 68.1205 2.00728L59.186 0.923054C58.6378 0.85652 58.1394 1.24704 58.0728 1.7953C58.0063 2.34356 58.3968 2.84195 58.9451 2.90849L66.8868 3.87225L65.9231 11.814C65.8565 12.3622 66.247 12.8606 66.7953 12.9272C67.3436 12.9937 67.842 12.6032 67.9085 12.0549L68.9927 3.12047ZM9.61677 50.0171L68.6168 3.78714L67.3832 2.21286L8.38323 48.4428L9.61677 50.0171Z" fill="#30ED8B"/>
</svg>
