<svg width="118" height="101" viewBox="0 0 118 101" fill="none" xmlns="http://www.w3.org/2000/svg">
<rect width="118" height="101" fill="white"/>
<path d="M65.9995 38C65.9995 37.4477 65.5518 37 64.9995 37H55.9995C55.4472 37 54.9995 37.4477 54.9995 38C54.9995 38.5523 55.4472 39 55.9995 39H63.9995V47C63.9995 47.5523 64.4472 48 64.9995 48C65.5518 48 65.9995 47.5523 65.9995 47V38ZM15.7071 88.7066L65.7066 38.7071L64.2924 37.2929L14.2929 87.2924L15.7071 88.7066Z" fill="black"/>
<path d="M114.947 39.3082C115.124 38.785 114.843 38.2175 114.32 38.0407L105.794 35.1601C105.27 34.9834 104.703 35.2642 104.526 35.7875C104.349 36.3107 104.63 36.8782 105.153 37.0549L112.733 39.6155L110.172 47.1946C109.995 47.7179 110.276 48.2853 110.799 48.4621C111.323 48.6388 111.89 48.358 112.067 47.8348L114.947 39.3082ZM15.4436 88.8844L114.444 39.8844L113.556 38.0919L14.5564 87.0919L15.4436 88.8844Z" fill="#52BC6D"/>
<path d="M65.7071 88.6952C66.0976 88.3047 66.0976 87.6715 65.7071 87.281L59.3431 80.9171C58.9526 80.5265 58.3195 80.5265 57.9289 80.9171C57.5384 81.3076 57.5384 81.9408 57.9289 82.3313L63.5858 87.9881L57.9289 93.645C57.5384 94.0355 57.5384 94.6687 57.9289 95.0592C58.3195 95.4497 58.9526 95.4497 59.3431 95.0592L65.7071 88.6952ZM15 88.9881L65 88.9881V86.9881L15 86.9881V88.9881Z" fill="black"/>
<path d="M15.7071 38.281C15.3166 37.8905 14.6834 37.8905 14.2929 38.281L7.92893 44.645C7.53841 45.0355 7.53841 45.6687 7.92893 46.0592C8.31946 46.4497 8.95262 46.4497 9.34315 46.0592L15 40.4023L20.6569 46.0592C21.0474 46.4497 21.6805 46.4497 22.0711 46.0592C22.4616 45.6687 22.4616 45.0355 22.0711 44.645L15.7071 38.281ZM16 88.9881L16 38.9881H14L14 88.9881H16Z" fill="black"/>
<path d="M68.696 69.0682C68.4233 69.0682 68.1825 68.9993 67.9737 68.8615C67.7649 68.7223 67.6016 68.5263 67.4837 68.2734C67.3658 68.0192 67.3068 67.7188 67.3068 67.3722C67.3068 67.0284 67.3658 66.7301 67.4837 66.4773C67.6016 66.2244 67.7656 66.0291 67.9759 65.8913C68.1861 65.7536 68.429 65.6847 68.7045 65.6847C68.9176 65.6847 69.0859 65.7202 69.2095 65.7912C69.3345 65.8608 69.4297 65.9403 69.495 66.0298C69.5618 66.1179 69.6136 66.1903 69.6506 66.2472H69.6932V64.6364H70.196V69H69.7102V68.4972H69.6506C69.6136 68.5568 69.5611 68.6321 69.4929 68.723C69.4247 68.8125 69.3274 68.8928 69.201 68.9638C69.0746 69.0334 68.9063 69.0682 68.696 69.0682ZM68.7642 68.6165C68.9659 68.6165 69.1364 68.5639 69.2756 68.4588C69.4148 68.3523 69.5206 68.2053 69.593 68.0178C69.6655 67.8288 69.7017 67.6108 69.7017 67.3636C69.7017 67.1193 69.6662 66.9055 69.5952 66.7223C69.5241 66.5376 69.419 66.3942 69.2798 66.2919C69.1406 66.1882 68.9688 66.1364 68.7642 66.1364C68.5511 66.1364 68.3736 66.1911 68.2315 66.3004C68.0909 66.4084 67.9851 66.5554 67.9141 66.7415C67.8445 66.9261 67.8097 67.1335 67.8097 67.3636C67.8097 67.5966 67.8452 67.8082 67.9162 67.9986C67.9886 68.1875 68.0952 68.3381 68.2358 68.4503C68.3778 68.5611 68.554 68.6165 68.7642 68.6165Z" fill="black"/>
<path d="M41.7898 69.0682C41.483 69.0682 41.2188 68.9957 40.9972 68.8509C40.7756 68.706 40.6051 68.5064 40.4858 68.2521C40.3665 67.9979 40.3068 67.7074 40.3068 67.3807C40.3068 67.0483 40.3679 66.755 40.4901 66.5007C40.6136 66.245 40.7855 66.0455 41.0057 65.902C41.2273 65.7571 41.4858 65.6847 41.7812 65.6847C42.0114 65.6847 42.2188 65.7273 42.4034 65.8125C42.5881 65.8977 42.7393 66.017 42.8572 66.1705C42.9751 66.3239 43.0483 66.5028 43.0767 66.7074H42.5739C42.5355 66.5582 42.4503 66.4261 42.3182 66.3111C42.1875 66.1946 42.0114 66.1364 41.7898 66.1364C41.5938 66.1364 41.4219 66.1875 41.2741 66.2898C41.1278 66.3906 41.0135 66.5334 40.9311 66.718C40.8501 66.9013 40.8097 67.1165 40.8097 67.3636C40.8097 67.6165 40.8494 67.8366 40.929 68.0241C41.0099 68.2116 41.1236 68.3572 41.2699 68.4609C41.4176 68.5646 41.5909 68.6165 41.7898 68.6165C41.9205 68.6165 42.0391 68.5938 42.1456 68.5483C42.2521 68.5028 42.3423 68.4375 42.4162 68.3523C42.4901 68.267 42.5426 68.1648 42.5739 68.0455H43.0767C43.0483 68.2386 42.978 68.4126 42.8658 68.5675C42.755 68.7209 42.608 68.843 42.4247 68.9339C42.2429 69.0234 42.0313 69.0682 41.7898 69.0682Z" fill="black"/>
<path d="M41.4233 94.0767C41.2159 94.0767 41.0277 94.0376 40.8587 93.9595C40.6896 93.88 40.5554 93.7656 40.456 93.6165C40.3565 93.4659 40.3068 93.2841 40.3068 93.071C40.3068 92.8835 40.3438 92.7315 40.4176 92.6151C40.4915 92.4972 40.5902 92.4048 40.7138 92.3381C40.8374 92.2713 40.9737 92.2216 41.1229 92.1889C41.2734 92.1548 41.4247 92.1278 41.5767 92.108C41.7756 92.0824 41.9368 92.0632 42.0604 92.0504C42.1854 92.0362 42.2763 92.0128 42.3331 91.9801C42.3913 91.9474 42.4205 91.8906 42.4205 91.8097V91.7926C42.4205 91.5824 42.3629 91.419 42.2479 91.3026C42.1342 91.1861 41.9616 91.1278 41.7301 91.1278C41.4901 91.1278 41.3018 91.1804 41.1655 91.2855C41.0291 91.3906 40.9332 91.5028 40.8778 91.6222L40.4006 91.4517C40.4858 91.2528 40.5994 91.098 40.7415 90.9872C40.8849 90.875 41.0412 90.7969 41.2102 90.7528C41.3807 90.7074 41.5483 90.6847 41.7131 90.6847C41.8182 90.6847 41.9389 90.6974 42.0753 90.723C42.2131 90.7472 42.3459 90.7976 42.4737 90.8743C42.603 90.951 42.7102 91.0668 42.7955 91.2216C42.8807 91.3764 42.9233 91.5838 42.9233 91.8438V94H42.4205V93.5568H42.3949C42.3608 93.6278 42.304 93.7038 42.2244 93.7848C42.1449 93.8658 42.0391 93.9347 41.907 93.9915C41.7749 94.0483 41.6136 94.0767 41.4233 94.0767ZM41.5 93.625C41.6989 93.625 41.8665 93.5859 42.0028 93.5078C42.1406 93.4297 42.2443 93.3288 42.3139 93.2053C42.3849 93.0817 42.4205 92.9517 42.4205 92.8153V92.3551C42.3991 92.3807 42.3523 92.4041 42.2798 92.4254C42.2088 92.4453 42.1264 92.4631 42.0327 92.4787C41.9403 92.4929 41.8501 92.5057 41.7621 92.517C41.6754 92.527 41.6051 92.5355 41.5511 92.5426C41.4205 92.5597 41.2983 92.5874 41.1847 92.6257C41.0724 92.6626 40.9815 92.7187 40.9119 92.794C40.8438 92.8679 40.8097 92.9687 40.8097 93.0966C40.8097 93.2713 40.8743 93.4034 41.0036 93.4929C41.1342 93.581 41.2997 93.625 41.5 93.625Z" fill="black"/>
<path d="M8.52841 69V64.6364H9.03125V66.2472H9.07386C9.1108 66.1903 9.16193 66.1179 9.22727 66.0298C9.29403 65.9403 9.3892 65.8608 9.51278 65.7912C9.63778 65.7202 9.80682 65.6847 10.0199 65.6847C10.2955 65.6847 10.5384 65.7536 10.7486 65.8913C10.9588 66.0291 11.1229 66.2244 11.2408 66.4773C11.3587 66.7301 11.4176 67.0284 11.4176 67.3722C11.4176 67.7188 11.3587 68.0192 11.2408 68.2734C11.1229 68.5263 10.9595 68.7223 10.7507 68.8615C10.5419 68.9993 10.3011 69.0682 10.0284 69.0682C9.81818 69.0682 9.64986 69.0334 9.52344 68.9638C9.39702 68.8928 9.29972 68.8125 9.23153 68.723C9.16335 68.6321 9.1108 68.5568 9.07386 68.4972H9.0142V69H8.52841ZM9.02273 67.3636C9.02273 67.6108 9.05895 67.8288 9.13139 68.0178C9.20384 68.2053 9.30966 68.3523 9.44886 68.4588C9.58807 68.5639 9.75852 68.6165 9.96023 68.6165C10.1705 68.6165 10.3459 68.5611 10.4865 68.4503C10.6286 68.3381 10.7351 68.1875 10.8061 67.9986C10.8786 67.8082 10.9148 67.5966 10.9148 67.3636C10.9148 67.1335 10.8793 66.9261 10.8082 66.7415C10.7386 66.5554 10.6328 66.4084 10.4908 66.3004C10.3501 66.1911 10.1733 66.1364 9.96023 66.1364C9.75568 66.1364 9.58381 66.1882 9.4446 66.2919C9.3054 66.3942 9.20028 66.5376 9.12926 66.7223C9.05824 66.9055 9.02273 67.1193 9.02273 67.3636Z" fill="black"/>
</svg>
