<svg width="129" height="101" viewBox="0 0 129 101" fill="none" xmlns="http://www.w3.org/2000/svg">
<rect width="129" height="101" fill="white"/>
<path d="M11.9897 34.0001C11.4374 34.0057 10.9944 34.4581 11.0001 35.0103L11.0928 44.0098C11.0985 44.5621 11.5508 45.0052 12.1031 44.9995C12.6553 44.9938 13.0984 44.5415 13.0927 43.9892L13.0103 35.9896L21.0098 35.9072C21.5621 35.9015 22.0052 35.4492 21.9995 34.8969C21.9938 34.3447 21.5415 33.9016 20.9892 33.9073L11.9897 34.0001ZM61.6998 82.2856L12.6998 34.2856L11.3002 35.7144L60.3002 83.7144L61.6998 82.2856Z" fill="black"/>
<path d="M112 33C112 32.4477 111.552 32 111 32H102C101.447 32 101 32.4477 101 33C101 33.5523 101.447 34 102 34H110V42C110 42.5523 110.447 43 111 43C111.552 43 112 42.5523 112 42V33ZM61.7071 83.7066L111.707 33.7071L110.292 32.2929L60.2929 82.2924L61.7071 83.7066Z" fill="black"/>
<path d="M111.707 83.6952C112.098 83.3047 112.098 82.6715 111.707 82.281L105.343 75.9171C104.953 75.5265 104.319 75.5265 103.929 75.9171C103.538 76.3076 103.538 76.9408 103.929 77.3313L109.586 82.9881L103.929 88.645C103.538 89.0355 103.538 89.6687 103.929 90.0592C104.319 90.4497 104.953 90.4497 105.343 90.0592L111.707 83.6952ZM61 83.9881L111 83.9881V81.9881L61 81.9881V83.9881Z" fill="black"/>
<path d="M61.7071 33.281C61.3166 32.8905 60.6834 32.8905 60.2929 33.281L53.9289 39.645C53.5384 40.0355 53.5384 40.6687 53.9289 41.0592C54.3195 41.4497 54.9526 41.4497 55.3431 41.0592L61 35.4023L66.6569 41.0592C67.0474 41.4497 67.6805 41.4497 68.0711 41.0592C68.4616 40.6687 68.4616 40.0355 68.0711 39.645L61.7071 33.281ZM62 83.9881V33.9881H60V83.9881H62Z" fill="black"/>
<path d="M44.696 64.0682C44.4233 64.0682 44.1825 63.9993 43.9737 63.8615C43.7649 63.7223 43.6016 63.5263 43.4837 63.2734C43.3658 63.0192 43.3068 62.7188 43.3068 62.3722C43.3068 62.0284 43.3658 61.7301 43.4837 61.4773C43.6016 61.2244 43.7656 61.0291 43.9759 60.8913C44.1861 60.7536 44.429 60.6847 44.7045 60.6847C44.9176 60.6847 45.0859 60.7202 45.2095 60.7912C45.3345 60.8608 45.4297 60.9403 45.495 61.0298C45.5618 61.1179 45.6136 61.1903 45.6506 61.2472H45.6932V59.6364H46.196V64H45.7102V63.4972H45.6506C45.6136 63.5568 45.5611 63.6321 45.4929 63.723C45.4247 63.8125 45.3274 63.8928 45.201 63.9638C45.0746 64.0334 44.9063 64.0682 44.696 64.0682ZM44.7642 63.6165C44.9659 63.6165 45.1364 63.5639 45.2756 63.4588C45.4148 63.3523 45.5206 63.2053 45.593 63.0178C45.6655 62.8288 45.7017 62.6108 45.7017 62.3636C45.7017 62.1193 45.6662 61.9055 45.5952 61.7223C45.5241 61.5376 45.419 61.3942 45.2798 61.2919C45.1406 61.1882 44.9688 61.1364 44.7642 61.1364C44.5511 61.1364 44.3736 61.1911 44.2315 61.3004C44.0909 61.4084 43.9851 61.5554 43.9141 61.7415C43.8445 61.9261 43.8097 62.1335 43.8097 62.3636C43.8097 62.5966 43.8452 62.8082 43.9162 62.9986C43.9886 63.1875 44.0952 63.3381 44.2358 63.4503C44.3778 63.5611 44.554 63.6165 44.7642 63.6165Z" fill="black"/>
<path d="M65.7898 64.0682C65.483 64.0682 65.2188 63.9957 64.9972 63.8509C64.7756 63.706 64.6051 63.5064 64.4858 63.2521C64.3665 62.9979 64.3068 62.7074 64.3068 62.3807C64.3068 62.0483 64.3679 61.755 64.4901 61.5007C64.6136 61.245 64.7855 61.0455 65.0057 60.902C65.2273 60.7571 65.4858 60.6847 65.7812 60.6847C66.0114 60.6847 66.2188 60.7273 66.4034 60.8125C66.5881 60.8977 66.7393 61.017 66.8572 61.1705C66.9751 61.3239 67.0483 61.5028 67.0767 61.7074H66.5739C66.5355 61.5582 66.4503 61.4261 66.3182 61.3111C66.1875 61.1946 66.0114 61.1364 65.7898 61.1364C65.5938 61.1364 65.4219 61.1875 65.2741 61.2898C65.1278 61.3906 65.0135 61.5334 64.9311 61.718C64.8501 61.9013 64.8097 62.1165 64.8097 62.3636C64.8097 62.6165 64.8494 62.8366 64.929 63.0241C65.0099 63.2116 65.1236 63.3572 65.2699 63.4609C65.4176 63.5646 65.5909 63.6165 65.7898 63.6165C65.9205 63.6165 66.0391 63.5938 66.1456 63.5483C66.2521 63.5028 66.3423 63.4375 66.4162 63.3523C66.4901 63.267 66.5426 63.1648 66.5739 63.0455H67.0767C67.0483 63.2386 66.978 63.4126 66.8658 63.5675C66.755 63.7209 66.608 63.843 66.4247 63.9339C66.2429 64.0234 66.0313 64.0682 65.7898 64.0682Z" fill="black"/>
<path d="M87.4233 89.0767C87.2159 89.0767 87.0277 89.0376 86.8587 88.9595C86.6896 88.88 86.5554 88.7656 86.456 88.6165C86.3565 88.4659 86.3068 88.2841 86.3068 88.071C86.3068 87.8835 86.3438 87.7315 86.4176 87.6151C86.4915 87.4972 86.5902 87.4048 86.7138 87.3381C86.8374 87.2713 86.9737 87.2216 87.1229 87.1889C87.2734 87.1548 87.4247 87.1278 87.5767 87.108C87.7756 87.0824 87.9368 87.0632 88.0604 87.0504C88.1854 87.0362 88.2763 87.0128 88.3331 86.9801C88.3913 86.9474 88.4205 86.8906 88.4205 86.8097V86.7926C88.4205 86.5824 88.3629 86.419 88.2479 86.3026C88.1342 86.1861 87.9616 86.1278 87.7301 86.1278C87.4901 86.1278 87.3018 86.1804 87.1655 86.2855C87.0291 86.3906 86.9332 86.5028 86.8778 86.6222L86.4006 86.4517C86.4858 86.2528 86.5994 86.098 86.7415 85.9872C86.8849 85.875 87.0412 85.7969 87.2102 85.7528C87.3807 85.7074 87.5483 85.6847 87.7131 85.6847C87.8182 85.6847 87.9389 85.6974 88.0753 85.723C88.2131 85.7472 88.3459 85.7976 88.4737 85.8743C88.603 85.951 88.7102 86.0668 88.7955 86.2216C88.8807 86.3764 88.9233 86.5838 88.9233 86.8438V89H88.4205V88.5568H88.3949C88.3608 88.6278 88.304 88.7038 88.2244 88.7848C88.1449 88.8658 88.0391 88.9347 87.907 88.9915C87.7749 89.0483 87.6136 89.0767 87.4233 89.0767ZM87.5 88.625C87.6989 88.625 87.8665 88.5859 88.0028 88.5078C88.1406 88.4297 88.2443 88.3288 88.3139 88.2053C88.3849 88.0817 88.4205 87.9517 88.4205 87.8153V87.3551C88.3991 87.3807 88.3523 87.4041 88.2798 87.4254C88.2088 87.4453 88.1264 87.4631 88.0327 87.4787C87.9403 87.4929 87.8501 87.5057 87.7621 87.517C87.6754 87.527 87.6051 87.5355 87.5511 87.5426C87.4205 87.5597 87.2983 87.5874 87.1847 87.6257C87.0724 87.6626 86.9815 87.7187 86.9119 87.794C86.8438 87.8679 86.8097 87.9687 86.8097 88.0966C86.8097 88.2713 86.8743 88.4034 87.0036 88.4929C87.1342 88.581 87.2997 88.625 87.5 88.625Z" fill="black"/>
<path d="M88.5284 64V59.6364H89.0312V61.2472H89.0739C89.1108 61.1903 89.1619 61.1179 89.2273 61.0298C89.294 60.9403 89.3892 60.8608 89.5128 60.7912C89.6378 60.7202 89.8068 60.6847 90.0199 60.6847C90.2955 60.6847 90.5384 60.7536 90.7486 60.8913C90.9588 61.0291 91.1229 61.2244 91.2408 61.4773C91.3587 61.7301 91.4176 62.0284 91.4176 62.3722C91.4176 62.7188 91.3587 63.0192 91.2408 63.2734C91.1229 63.5263 90.9595 63.7223 90.7507 63.8615C90.5419 63.9993 90.3011 64.0682 90.0284 64.0682C89.8182 64.0682 89.6499 64.0334 89.5234 63.9638C89.397 63.8928 89.2997 63.8125 89.2315 63.723C89.1634 63.6321 89.1108 63.5568 89.0739 63.4972H89.0142V64H88.5284ZM89.0227 62.3636C89.0227 62.6108 89.0589 62.8288 89.1314 63.0178C89.2038 63.2053 89.3097 63.3523 89.4489 63.4588C89.5881 63.5639 89.7585 63.6165 89.9602 63.6165C90.1705 63.6165 90.3459 63.5611 90.4865 63.4503C90.6286 63.3381 90.7351 63.1875 90.8061 62.9986C90.8786 62.8082 90.9148 62.5966 90.9148 62.3636C90.9148 62.1335 90.8793 61.9261 90.8082 61.7415C90.7386 61.5554 90.6328 61.4084 90.4908 61.3004C90.3501 61.1911 90.1733 61.1364 89.9602 61.1364C89.7557 61.1364 89.5838 61.1882 89.4446 61.2919C89.3054 61.3942 89.2003 61.5376 89.1293 61.7223C89.0582 61.9055 89.0227 62.1193 89.0227 62.3636Z" fill="black"/>
</svg>
