<svg width="86" height="76" viewBox="0 0 86 76" fill="none" xmlns="http://www.w3.org/2000/svg">
<rect width="86" height="76" fill="white"/>
<path d="M31.0825 35.3891C30.8752 35.3891 30.6955 35.3529 30.5435 35.2805C30.3929 35.2066 30.2821 35.0972 30.2111 34.9523C30.1401 34.8075 30.1223 34.6278 30.1578 34.4133C30.1891 34.2315 30.248 34.0795 30.3347 33.9573C30.4227 33.8337 30.53 33.7343 30.6564 33.659C30.7828 33.5837 30.9227 33.5262 31.0762 33.4864C31.231 33.4467 31.3908 33.4197 31.5556 33.4055C31.7459 33.3856 31.9007 33.3664 32.02 33.3479C32.1408 33.3295 32.231 33.3032 32.2906 33.2691C32.3503 33.2336 32.3865 33.181 32.3993 33.1114V33.0987C32.4206 32.9651 32.3958 32.8614 32.3247 32.7876C32.2551 32.7123 32.1436 32.6746 31.9902 32.6746C31.8283 32.6746 31.6905 32.7102 31.5769 32.7812C31.4647 32.8522 31.3844 32.9424 31.3361 33.0518L30.5094 32.9836C30.5833 32.7847 30.6948 32.6129 30.8439 32.468C30.9945 32.3217 31.1756 32.2094 31.3872 32.1313C31.5989 32.0518 31.8361 32.012 32.0989 32.012C32.2807 32.012 32.4504 32.0333 32.6081 32.0759C32.7672 32.1185 32.9043 32.1846 33.0193 32.2741C33.1358 32.3636 33.2196 32.4786 33.2708 32.6193C33.3233 32.7585 33.334 32.9254 33.3027 33.12L32.9341 35.3273H32.0733L32.15 34.8735H32.1245C32.0548 34.9758 31.9696 35.066 31.8688 35.1441C31.7679 35.2208 31.6522 35.2812 31.5215 35.3252C31.3908 35.3678 31.2445 35.3891 31.0825 35.3891ZM31.4469 34.7627C31.579 34.7627 31.7004 34.7364 31.8112 34.6839C31.9235 34.6299 32.0158 34.5575 32.0882 34.4666C32.1621 34.3756 32.209 34.2727 32.2289 34.1576L32.2843 33.8103C32.2558 33.8288 32.2147 33.8451 32.1607 33.8593C32.1081 33.8735 32.0506 33.887 31.9881 33.8998C31.927 33.9112 31.8652 33.9218 31.8027 33.9318C31.7402 33.9403 31.6841 33.9488 31.6344 33.9573C31.525 33.9729 31.427 33.9978 31.3404 34.0319C31.2537 34.066 31.1834 34.1121 31.1294 34.1704C31.0754 34.2272 31.0421 34.2982 31.0293 34.3835C31.0094 34.507 31.0385 34.6015 31.1166 34.6668C31.1962 34.7308 31.3063 34.7627 31.4469 34.7627Z" fill="#514683"/>
<path d="M25.628 58.3913C25.2914 58.3913 25.0144 58.3203 24.797 58.1782C24.5811 58.0347 24.4298 57.8359 24.3432 57.5816C24.258 57.3274 24.2431 57.0347 24.2985 56.7038C24.3524 56.3686 24.4654 56.0745 24.6372 55.8217C24.8091 55.5674 25.0272 55.3693 25.2914 55.2272C25.557 55.0838 25.8553 55.012 26.1862 55.012C26.4718 55.012 26.7132 55.0639 26.9107 55.1676C27.1081 55.2713 27.253 55.4169 27.3453 55.6044C27.4377 55.7919 27.4689 56.012 27.4391 56.2649H26.5847C26.5861 56.1029 26.5442 55.9715 26.459 55.8707C26.3737 55.7698 26.2487 55.7194 26.084 55.7194C25.9419 55.7194 25.8112 55.7578 25.6919 55.8345C25.574 55.9097 25.4739 56.0198 25.3915 56.1647C25.3105 56.3096 25.2537 56.485 25.221 56.691C25.187 56.8998 25.1862 57.0774 25.2189 57.2237C25.2516 57.37 25.3141 57.4815 25.4064 57.5582C25.4987 57.6349 25.6152 57.6732 25.7558 57.6732C25.861 57.6732 25.9583 57.6519 26.0477 57.6093C26.1387 57.5667 26.2182 57.5049 26.2864 57.424C26.3546 57.3416 26.4071 57.2428 26.4441 57.1278H27.3006C27.2423 57.3792 27.1365 57.5994 26.9831 57.7883C26.8311 57.9772 26.6401 58.1249 26.41 58.2315C26.1798 58.338 25.9192 58.3913 25.628 58.3913Z" fill="#20F727"/>
<path d="M51.1749 29.3273L51.8993 24.9637H52.807L52.5385 26.6043H52.5641C52.6181 26.5163 52.6905 26.4268 52.7814 26.3359C52.8737 26.2435 52.9867 26.1668 53.1202 26.1058C53.2537 26.0433 53.4121 26.012 53.5953 26.012C53.834 26.012 54.0435 26.0745 54.2239 26.1995C54.4043 26.3231 54.5343 26.5099 54.6138 26.7599C54.6933 27.0085 54.7019 27.3202 54.6394 27.6952C54.5797 28.0603 54.4696 28.3685 54.3091 28.62C54.15 28.87 53.959 29.0596 53.736 29.1889C53.5144 29.3167 53.2793 29.3806 53.0307 29.3806C52.8546 29.3806 52.7097 29.3515 52.596 29.2933C52.4838 29.235 52.3965 29.1619 52.334 29.0738C52.2715 28.9843 52.2267 28.8941 52.1997 28.8032H52.155L52.0698 29.3273H51.1749ZM52.3361 27.691C52.3049 27.8856 52.3041 28.0553 52.334 28.2002C52.3652 28.3451 52.4249 28.458 52.5129 28.539C52.6024 28.6185 52.7196 28.6583 52.8645 28.6583C53.0137 28.6583 53.1458 28.6178 53.2608 28.5369C53.3773 28.4545 53.4739 28.3408 53.5506 28.196C53.6273 28.0496 53.6813 27.8813 53.7125 27.691C53.7424 27.5021 53.7431 27.3359 53.7147 27.1924C53.6862 27.0489 53.628 26.9367 53.5399 26.8558C53.4519 26.7748 53.3325 26.7343 53.182 26.7343C53.0357 26.7343 52.9043 26.7734 52.7878 26.8515C52.6727 26.9296 52.5762 27.0404 52.498 27.1839C52.4213 27.3273 52.3674 27.4964 52.3361 27.691Z" fill="#514683"/>
<path d="M45.1321 25.4273C45.2444 25.175 45.131 24.8795 44.8787 24.7672L40.7677 22.9368C40.5155 22.8245 40.2199 22.938 40.1076 23.1903C39.9953 23.4425 40.1087 23.7381 40.361 23.8504L44.0152 25.4773L42.3882 29.1315C42.2759 29.3838 42.3894 29.6793 42.6416 29.7917C42.8939 29.904 43.1895 29.7905 43.3018 29.5383L45.1321 25.4273ZM12.1792 38.2336L44.8545 25.6907L44.4961 24.7571L11.8208 37.3L12.1792 38.2336Z" fill="#514683"/>
<path d="M43.085 66.8271C43.361 66.8179 43.5773 66.5867 43.5681 66.3107L43.4181 61.8132C43.4089 61.5372 43.1778 61.3209 42.9018 61.3301C42.6258 61.3393 42.4095 61.5705 42.4187 61.8465L42.552 65.8443L38.5542 65.9776C38.2782 65.9868 38.0619 66.2179 38.0711 66.4939C38.0803 66.7699 38.3115 66.9862 38.5875 66.977L43.085 66.8271ZM11.7268 37.6925L42.7268 66.6925L43.4099 65.9622L12.4099 36.9622L11.7268 37.6925Z" fill="#20F727"/>
<path d="M69.4017 16.2034C69.514 15.9511 69.4005 15.6556 69.1483 15.5432L65.0373 13.7129C64.785 13.6006 64.4895 13.7141 64.3772 13.9663C64.2648 14.2186 64.3783 14.5141 64.6306 14.6265L68.2847 16.2534L66.6578 19.9076C66.5455 20.1599 66.6589 20.4554 66.9112 20.5677C67.1635 20.6801 67.459 20.5666 67.5713 20.3143L69.4017 16.2034ZM13.371 37.8684L69.1241 16.4668L68.7657 15.5332L13.0126 36.9348L13.371 37.8684Z" fill="#514683"/>
</svg>
