<svg width="180" height="126" viewBox="0 0 180 126" fill="none" xmlns="http://www.w3.org/2000/svg">
<rect width="180" height="126" fill="white"/>
<path d="M106.028 65.1236C105.614 65.1236 105.254 65.0511 104.95 64.9062C104.649 64.7585 104.428 64.5398 104.286 64.25C104.143 63.9602 104.108 63.6009 104.179 63.1719C104.241 62.8082 104.359 62.5043 104.533 62.2599C104.709 62.0128 104.923 61.8139 105.176 61.6634C105.429 61.5128 105.709 61.3977 106.016 61.3182C106.325 61.2386 106.645 61.1847 106.974 61.1562C107.355 61.1165 107.665 61.0781 107.903 61.0412C108.145 61.0043 108.325 60.9517 108.445 60.8835C108.564 60.8125 108.636 60.7074 108.662 60.5682V60.5426C108.705 60.2756 108.655 60.0682 108.513 59.9205C108.374 59.7699 108.151 59.6946 107.844 59.6946C107.52 59.6946 107.244 59.7656 107.017 59.9077C106.793 60.0497 106.632 60.2301 106.536 60.4489L104.882 60.3125C105.03 59.9148 105.253 59.571 105.551 59.2812C105.852 58.9886 106.214 58.7642 106.638 58.608C107.061 58.4489 107.536 58.3693 108.061 58.3693C108.425 58.3693 108.764 58.4119 109.08 58.4972C109.398 58.5824 109.672 58.7145 109.902 58.8935C110.135 59.0724 110.303 59.3026 110.405 59.5838C110.51 59.8622 110.531 60.196 110.469 60.5852L109.732 65H108.01L108.163 64.0923H108.112C107.973 64.2969 107.803 64.4773 107.601 64.6335C107.399 64.7869 107.168 64.9077 106.906 64.9957C106.645 65.081 106.352 65.1236 106.028 65.1236ZM106.757 63.8707C107.021 63.8707 107.264 63.8182 107.486 63.7131C107.71 63.6051 107.895 63.4602 108.04 63.2784C108.188 63.0966 108.281 62.8906 108.321 62.6605L108.432 61.9659C108.375 62.0028 108.293 62.0355 108.185 62.0639C108.08 62.0923 107.964 62.1193 107.839 62.1449C107.717 62.1676 107.594 62.1889 107.469 62.2088C107.344 62.2259 107.232 62.2429 107.132 62.2599C106.913 62.2912 106.717 62.3409 106.544 62.4091C106.371 62.4773 106.23 62.5696 106.122 62.6861C106.014 62.7997 105.947 62.9418 105.922 63.1122C105.882 63.3594 105.94 63.5483 106.097 63.679C106.256 63.8068 106.476 63.8707 106.757 63.8707Z" fill="#514683"/>
<path d="M51.1561 79.7874C50.4828 79.7874 49.9289 79.6453 49.4942 79.3613C49.0624 79.0743 48.7598 78.6766 48.5865 78.1681C48.4161 77.6595 48.3863 77.0743 48.497 76.4124C48.605 75.7419 48.8309 75.1539 49.1746 74.6482C49.5184 74.1397 49.9544 73.7434 50.4828 73.4593C51.0141 73.1723 51.6107 73.0289 52.2726 73.0289C52.8436 73.0289 53.3266 73.1326 53.7215 73.3399C54.1164 73.5473 54.4061 73.8385 54.5908 74.2135C54.7755 74.5885 54.838 75.0289 54.7783 75.5345H53.0695C53.0723 75.2107 52.9885 74.9479 52.8181 74.7462C52.6476 74.5445 52.3976 74.4436 52.0681 74.4436C51.784 74.4436 51.5226 74.5203 51.284 74.6738C51.0482 74.8243 50.8479 75.0445 50.6831 75.3343C50.5212 75.624 50.4076 75.9749 50.3422 76.3868C50.274 76.8044 50.2726 77.1595 50.338 77.4522C50.4033 77.7448 50.5283 77.9678 50.713 78.1212C50.8976 78.2746 51.1306 78.3513 51.4118 78.3513C51.622 78.3513 51.8166 78.3087 51.9956 78.2235C52.1774 78.1382 52.3365 78.0147 52.4729 77.8527C52.6093 77.688 52.7144 77.4905 52.7882 77.2604H54.5013C54.3848 77.7632 54.1732 78.2036 53.8664 78.5814C53.5624 78.9593 53.1803 79.2547 52.7201 79.4678C52.2598 79.6809 51.7385 79.7874 51.1561 79.7874Z" fill="#3CDF6A"/>
<path d="M78.794 88.4545L78.5682 89.8182H74.5284L74.7543 88.4545H78.794ZM74.5838 95L75.7557 87.9815C75.8324 87.5071 75.9886 87.1136 76.2244 86.8011C76.4631 86.4886 76.7571 86.2543 77.1065 86.098C77.4588 85.9418 77.8395 85.8636 78.2486 85.8636C78.527 85.8636 78.7784 85.8849 79.0028 85.9276C79.2301 85.9702 79.3949 86.0085 79.4972 86.0426L78.956 87.4062C78.8878 87.3835 78.804 87.3622 78.7045 87.3423C78.6051 87.3224 78.5 87.3125 78.3892 87.3125C78.125 87.3125 77.9304 87.375 77.8054 87.5C77.6832 87.6222 77.6009 87.794 77.5582 88.0156L76.3949 95H74.5838Z" fill="#3CDF6A"/>
<path d="M124.582 81.1065C124.082 81.1065 123.652 80.9787 123.291 80.723C122.933 80.4645 122.678 80.0852 122.524 79.5852C122.374 79.0824 122.359 78.4659 122.482 77.7358C122.607 76.9858 122.831 76.3622 123.155 75.8651C123.479 75.3651 123.862 74.9915 124.305 74.7443C124.749 74.4943 125.21 74.3693 125.69 74.3693C126.054 74.3693 126.348 74.4318 126.572 74.5568C126.8 74.679 126.974 74.8324 127.097 75.017C127.219 75.1989 127.304 75.3778 127.352 75.554H127.408L127.957 72.2727H129.768L128.32 81H126.53L126.705 79.9517H126.628C126.514 80.1335 126.364 80.3139 126.176 80.4929C125.991 80.669 125.767 80.8153 125.503 80.9318C125.241 81.0483 124.935 81.1065 124.582 81.1065ZM125.384 79.6619C125.673 79.6619 125.935 79.5824 126.168 79.4233C126.401 79.2614 126.597 79.0355 126.756 78.7457C126.915 78.456 127.026 78.1165 127.088 77.7273C127.153 77.3381 127.155 77 127.092 76.7131C127.03 76.4261 126.908 76.2045 126.726 76.0483C126.547 75.892 126.31 75.8139 126.014 75.8139C125.716 75.8139 125.452 75.8949 125.222 76.0568C124.994 76.2187 124.805 76.4432 124.655 76.7301C124.507 77.017 124.402 77.3494 124.339 77.7273C124.277 78.108 124.273 78.4446 124.327 78.7372C124.381 79.027 124.496 79.2543 124.672 79.419C124.848 79.581 125.085 79.6619 125.384 79.6619Z" fill="#3CDF6A"/>
<path d="M50.9336 56.4258C50.2631 56.4258 49.7077 56.2895 49.2674 56.0167C48.827 55.7412 48.5174 55.352 48.3384 54.8491C48.1622 54.3434 48.1324 53.7454 48.2489 53.0551C48.3625 52.3818 48.5912 51.7909 48.935 51.2824C49.2816 50.7738 49.7162 50.3775 50.2389 50.0934C50.7617 49.8094 51.3441 49.6673 51.9861 49.6673C52.4179 49.6673 52.8086 49.7369 53.158 49.8761C53.5103 50.0125 53.8029 50.2199 54.0358 50.4983C54.2688 50.7738 54.4279 51.119 54.5131 51.5338C54.6012 51.9486 54.5997 52.4344 54.5088 52.9912L54.4279 53.4898H48.9051L49.0799 52.3648H52.898C52.9407 52.1034 52.9236 51.8719 52.8469 51.6701C52.7702 51.4684 52.6424 51.3108 52.4634 51.1971C52.2844 51.0807 52.0642 51.0224 51.8029 51.0224C51.5358 51.0224 51.2858 51.0878 51.0529 51.2184C50.8199 51.3491 50.6239 51.521 50.4648 51.7341C50.3086 51.9443 50.2077 52.173 50.1622 52.4201L49.962 53.5366C49.9051 53.8804 49.9165 54.1659 49.9961 54.3932C50.0784 54.6204 50.2205 54.7909 50.4222 54.9045C50.6239 55.0153 50.8796 55.0707 51.1892 55.0707C51.3909 55.0707 51.5799 55.0423 51.756 54.9855C51.935 54.9287 52.0941 54.8449 52.2333 54.7341C52.3725 54.6204 52.4861 54.4798 52.5742 54.3122L54.2318 54.423C54.0784 54.8264 53.8455 55.1787 53.533 55.4798C53.2205 55.7781 52.8441 56.0111 52.4037 56.1787C51.9662 56.3434 51.4762 56.4258 50.9336 56.4258Z" fill="#3CDF6A"/>
<path d="M81.2131 61L82.6619 52.2727H84.4773L83.9403 55.554H83.9915C84.0994 55.3778 84.2443 55.1989 84.4261 55.017C84.6108 54.8324 84.8366 54.679 85.1037 54.5568C85.3707 54.4318 85.6875 54.3693 86.054 54.3693C86.5313 54.3693 86.9503 54.4943 87.3111 54.7443C87.6719 54.9915 87.9318 55.3651 88.0909 55.8651C88.25 56.3622 88.267 56.9858 88.142 57.7358C88.0227 58.4659 87.8026 59.0824 87.4815 59.5852C87.1634 60.0852 86.7813 60.4645 86.3352 60.723C85.892 60.9787 85.4219 61.1065 84.9247 61.1065C84.5724 61.1065 84.2827 61.0483 84.0554 60.9318C83.831 60.8153 83.6563 60.669 83.5313 60.4929C83.4063 60.3139 83.3168 60.1335 83.2628 59.9517H83.1733L83.0028 61H81.2131ZM83.5355 57.7273C83.473 58.1165 83.4716 58.456 83.5313 58.7457C83.5938 59.0355 83.7131 59.2614 83.8892 59.4233C84.0682 59.5824 84.3026 59.6619 84.5923 59.6619C84.8906 59.6619 85.1548 59.581 85.3849 59.419C85.6179 59.2543 85.8111 59.027 85.9645 58.7372C86.1179 58.4446 86.2259 58.108 86.2884 57.7273C86.348 57.3494 86.3494 57.017 86.2926 56.7301C86.2358 56.4432 86.1193 56.2188 85.9432 56.0568C85.767 55.8949 85.5284 55.8139 85.2273 55.8139C84.9347 55.8139 84.6719 55.892 84.4389 56.0483C84.2088 56.2045 84.0156 56.4261 83.8594 56.7131C83.706 57 83.598 57.3381 83.5355 57.7273Z" fill="#514683"/>
<path d="M123 39.0061C123.003 38.4538 122.558 38.0034 122.006 38L113.006 37.9454C112.454 37.942 112.004 38.387 112 38.9393C111.997 39.4916 112.442 39.942 112.994 39.9453L120.994 39.9939L120.945 47.9938C120.942 48.546 121.387 48.9965 121.939 48.9998C122.492 49.0032 122.942 48.5582 122.945 48.0059L123 39.0061ZM90.7028 71.3251L122.703 39.7114L121.297 38.2886L89.2972 69.9023L90.7028 71.3251Z" fill="#514683"/>
<path d="M60.0006 97.9655C59.9816 98.5175 60.4136 98.9804 60.9655 98.9994L69.9602 99.3096C70.5121 99.3286 70.975 98.8966 70.9941 98.3446C71.0131 97.7927 70.5811 97.3298 70.0291 97.3108L62.0339 97.0351L62.3096 89.0398C62.3286 88.4879 61.8966 88.025 61.3446 88.0059C60.7927 87.9869 60.3298 88.4189 60.3108 88.9709L60.0006 97.9655ZM61.6823 98.7311L91.6823 70.7311L90.3177 69.2689L60.3177 97.2689L61.6823 98.7311Z" fill="#3CDF6A"/>
<path d="M90.7071 35.2929C90.3166 34.9024 89.6834 34.9024 89.2929 35.2929L82.9289 41.6569C82.5384 42.0474 82.5384 42.6805 82.9289 43.0711C83.3195 43.4616 83.9526 43.4616 84.3431 43.0711L90 37.4142L95.6569 43.0711C96.0474 43.4616 96.6805 43.4616 97.0711 43.0711C97.4616 42.6805 97.4616 42.0474 97.0711 41.6569L90.7071 35.2929ZM91 71L91 36L89 36L89 71L91 71Z" fill="#514683"/>
<path d="M152.707 70.7071C153.098 70.3166 153.098 69.6834 152.707 69.2929L146.343 62.9289C145.953 62.5384 145.319 62.5384 144.929 62.9289C144.538 63.3195 144.538 63.9526 144.929 64.3431L150.586 70L144.929 75.6569C144.538 76.0474 144.538 76.6805 144.929 77.0711C145.319 77.4616 145.953 77.4616 146.343 77.0711L152.707 70.7071ZM90 71H152V69H90V71Z" fill="#3CDF6A"/>
<path d="M28.3052 68.2808C27.908 68.6645 27.8971 69.2976 28.2808 69.6948L34.5341 76.1675C34.9179 76.5647 35.5509 76.5756 35.9481 76.1919C36.3453 75.8082 36.3562 75.1751 35.9725 74.7779L30.414 69.0244L36.1675 63.4659C36.5647 63.0821 36.5756 62.4491 36.1919 62.0519C35.8082 61.6547 35.1751 61.6438 34.7779 62.0275L28.3052 68.2808ZM28.9828 69.9999L90.9735 71.0687L91.008 69.069L29.0172 68.0001L28.9828 69.9999Z" fill="#3CDF6A"/>
<path d="M32.8466 28.0118C32.3008 28.0966 31.9271 28.6077 32.0118 29.1534L33.3928 38.0469C33.4775 38.5926 33.9886 38.9663 34.5344 38.8816C35.0801 38.7968 35.4539 38.2857 35.3691 37.74L34.1416 29.8347L42.0469 28.6072C42.5926 28.5225 42.9663 28.0114 42.8816 27.4656C42.7968 26.9199 42.2857 26.5461 41.74 26.6309L32.8466 28.0118ZM32.4098 29.8072L88.8595 71.0824L90.04 69.468L33.5902 28.1928L32.4098 29.8072Z" fill="#3CDF6A"/>
</svg>
