<svg width="118" height="98" viewBox="0 0 118 98" fill="none" xmlns="http://www.w3.org/2000/svg">
<rect width="118" height="98" fill="white"/>
<line x1="80.659" y1="34.1113" x2="113.342" y2="3.63433" stroke="black"/>
<line x1="39.9115" y1="35.1078" x2="5.6786" y2="6.38303" stroke="black"/>
<path d="M20.9571 18.8071C20.6821 18.8312 20.4786 19.0737 20.5026 19.3488L20.8948 23.8316C20.9189 24.1067 21.1614 24.3102 21.4365 24.2862C21.7116 24.2621 21.9151 24.0196 21.891 23.7445L21.5424 19.7597L25.5272 19.4111C25.8023 19.387 26.0058 19.1445 25.9817 18.8694C25.9576 18.5943 25.7151 18.3908 25.44 18.4149L20.9571 18.8071ZM108.665 92.2115L21.3221 18.9222L20.6793 19.6882L108.022 92.9775L108.665 92.2115Z" fill="#514683"/>
<path d="M97.5258 18.6834C97.5354 18.4074 97.3195 18.1759 97.0436 18.1662L92.5463 18.0092C92.2703 17.9996 92.0388 18.2155 92.0291 18.4914C92.0195 18.7674 92.2354 18.9989 92.5114 19.0086L96.509 19.1482L96.3694 23.1457C96.3597 23.4217 96.5756 23.6532 96.8516 23.6629C97.1276 23.6725 97.3591 23.4566 97.3687 23.1806L97.5258 18.6834ZM19.5824 91.567L97.3671 19.0316L96.6851 18.3003L18.9004 90.8357L19.5824 91.567Z" fill="#514683"/>
</svg>
