<svg width="72" height="59" viewBox="0 0 72 59" fill="none" xmlns="http://www.w3.org/2000/svg">
<rect width="72" height="59" fill="white"/>
<path d="M2.02841 34.1236C1.61364 34.1236 1.25426 34.0511 0.950284 33.9062C0.649148 33.7585 0.427557 33.5398 0.285511 33.25C0.143466 32.9602 0.107955 32.6009 0.178977 32.1719C0.241477 31.8082 0.359375 31.5043 0.53267 31.2599C0.708807 31.0128 0.923295 30.8139 1.17614 30.6634C1.42898 30.5128 1.70881 30.3977 2.01562 30.3182C2.32528 30.2386 2.64489 30.1847 2.97443 30.1562C3.35511 30.1165 3.66477 30.0781 3.90341 30.0412C4.14489 30.0043 4.32528 29.9517 4.4446 29.8835C4.56392 29.8125 4.63636 29.7074 4.66193 29.5682V29.5426C4.70455 29.2756 4.65483 29.0682 4.51278 28.9205C4.37358 28.7699 4.15057 28.6946 3.84375 28.6946C3.51989 28.6946 3.24432 28.7656 3.01705 28.9077C2.79261 29.0497 2.6321 29.2301 2.53551 29.4489L0.882102 29.3125C1.02983 28.9148 1.25284 28.571 1.55114 28.2812C1.85227 27.9886 2.21449 27.7642 2.63778 27.608C3.06108 27.4489 3.53551 27.3693 4.06108 27.3693C4.42472 27.3693 4.7642 27.4119 5.07955 27.4972C5.39773 27.5824 5.67188 27.7145 5.90199 27.8935C6.13494 28.0724 6.30256 28.3026 6.40483 28.5838C6.50994 28.8622 6.53125 29.196 6.46875 29.5852L5.73153 34H4.00994L4.16335 33.0923H4.11222C3.97301 33.2969 3.80256 33.4773 3.60085 33.6335C3.39915 33.7869 3.16761 33.9077 2.90625 33.9957C2.64489 34.081 2.35227 34.1236 2.02841 34.1236ZM2.7571 32.8707C3.02131 32.8707 3.2642 32.8182 3.4858 32.7131C3.71023 32.6051 3.89489 32.4602 4.03977 32.2784C4.1875 32.0966 4.28125 31.8906 4.32102 31.6605L4.43182 30.9659C4.375 31.0028 4.29261 31.0355 4.18466 31.0639C4.07955 31.0923 3.96449 31.1193 3.83949 31.1449C3.71733 31.1676 3.59375 31.1889 3.46875 31.2088C3.34375 31.2259 3.23153 31.2429 3.1321 31.2599C2.91335 31.2912 2.71733 31.3409 2.54403 31.4091C2.37074 31.4773 2.23011 31.5696 2.12216 31.6861C2.0142 31.7997 1.94744 31.9418 1.92188 32.1122C1.8821 32.3594 1.94034 32.5483 2.09659 32.679C2.25568 32.8068 2.47585 32.8707 2.7571 32.8707Z" fill="#514683"/>
<path d="M34.2131 57L35.6619 48.2727H37.4773L36.9403 51.554H36.9915C37.0994 51.3778 37.2443 51.1989 37.4261 51.017C37.6108 50.8324 37.8366 50.679 38.1037 50.5568C38.3707 50.4318 38.6875 50.3693 39.054 50.3693C39.5313 50.3693 39.9503 50.4943 40.3111 50.7443C40.6719 50.9915 40.9318 51.3651 41.0909 51.8651C41.25 52.3622 41.267 52.9858 41.142 53.7358C41.0227 54.4659 40.8026 55.0824 40.4815 55.5852C40.1634 56.0852 39.7813 56.4645 39.3352 56.723C38.892 56.9787 38.4219 57.1065 37.9247 57.1065C37.5724 57.1065 37.2827 57.0483 37.0554 56.9318C36.831 56.8153 36.6562 56.669 36.5312 56.4929C36.4062 56.3139 36.3168 56.1335 36.2628 55.9517H36.1733L36.0028 57H34.2131ZM36.5355 53.7273C36.473 54.1165 36.4716 54.456 36.5312 54.7457C36.5938 55.0355 36.7131 55.2614 36.8892 55.4233C37.0682 55.5824 37.3026 55.6619 37.5923 55.6619C37.8906 55.6619 38.1548 55.581 38.3849 55.419C38.6179 55.2543 38.8111 55.027 38.9645 54.7372C39.1179 54.4446 39.2259 54.108 39.2884 53.7273C39.348 53.3494 39.3494 53.017 39.2926 52.7301C39.2358 52.4432 39.1193 52.2187 38.9432 52.0568C38.767 51.8949 38.5284 51.8139 38.2273 51.8139C37.9347 51.8139 37.6719 51.892 37.4389 52.0483C37.2088 52.2045 37.0156 52.4261 36.8594 52.7131C36.706 53 36.598 53.3381 36.5355 53.7273Z" fill="#514683"/>
<path d="M48.0284 28.1236C47.6136 28.1236 47.2543 28.0511 46.9503 27.9062C46.6491 27.7585 46.4276 27.5398 46.2855 27.25C46.1435 26.9602 46.108 26.6009 46.179 26.1719C46.2415 25.8082 46.3594 25.5043 46.5327 25.2599C46.7088 25.0128 46.9233 24.8139 47.1761 24.6634C47.429 24.5128 47.7088 24.3977 48.0156 24.3182C48.3253 24.2386 48.6449 24.1847 48.9744 24.1562C49.3551 24.1165 49.6648 24.0781 49.9034 24.0412C50.1449 24.0043 50.3253 23.9517 50.4446 23.8835C50.5639 23.8125 50.6364 23.7074 50.6619 23.5682V23.5426C50.7045 23.2756 50.6548 23.0682 50.5128 22.9205C50.3736 22.7699 50.1506 22.6946 49.8438 22.6946C49.5199 22.6946 49.2443 22.7656 49.017 22.9077C48.7926 23.0497 48.6321 23.2301 48.5355 23.4489L46.8821 23.3125C47.0298 22.9148 47.2528 22.571 47.5511 22.2812C47.8523 21.9886 48.2145 21.7642 48.6378 21.608C49.0611 21.4489 49.5355 21.3693 50.0611 21.3693C50.4247 21.3693 50.7642 21.4119 51.0795 21.4972C51.3977 21.5824 51.6719 21.7145 51.902 21.8935C52.1349 22.0724 52.3026 22.3026 52.4048 22.5838C52.5099 22.8622 52.5312 23.196 52.4688 23.5852L51.7315 28H50.0099L50.1634 27.0923H50.1122C49.973 27.2969 49.8026 27.4773 49.6009 27.6335C49.3991 27.7869 49.1676 27.9077 48.9062 27.9957C48.6449 28.081 48.3523 28.1236 48.0284 28.1236ZM48.7571 26.8707C49.0213 26.8707 49.2642 26.8182 49.4858 26.7131C49.7102 26.6051 49.8949 26.4602 50.0398 26.2784C50.1875 26.0966 50.2813 25.8906 50.321 25.6605L50.4318 24.9659C50.375 25.0028 50.2926 25.0355 50.1847 25.0639C50.0795 25.0923 49.9645 25.1193 49.8395 25.1449C49.7173 25.1676 49.5938 25.1889 49.4688 25.2088C49.3438 25.2259 49.2315 25.2429 49.1321 25.2599C48.9134 25.2912 48.7173 25.3409 48.544 25.4091C48.3707 25.4773 48.2301 25.5696 48.1222 25.6861C48.0142 25.7997 47.9474 25.9418 47.9219 26.1122C47.8821 26.3594 47.9403 26.5483 48.0966 26.679C48.2557 26.8068 48.4759 26.8707 48.7571 26.8707ZM57.9339 23.696L57.6996 25.1364H53.7152L53.9496 23.696H57.9339ZM58.799 28L60.2479 19.2727H62.0632L61.5263 22.554H61.5774C61.6854 22.3778 61.8303 22.1989 62.0121 22.017C62.1967 21.8324 62.4226 21.679 62.6896 21.5568C62.9567 21.4318 63.2734 21.3693 63.6399 21.3693C64.1172 21.3693 64.5362 21.4943 64.897 21.7443C65.2578 21.9915 65.5178 22.3651 65.6768 22.8651C65.8359 23.3622 65.853 23.9858 65.728 24.7358C65.6087 25.4659 65.3885 26.0824 65.0675 26.5852C64.7493 27.0852 64.3672 27.4645 63.9212 27.723C63.478 27.9787 63.0078 28.1065 62.5107 28.1065C62.1584 28.1065 61.8686 28.0483 61.6413 27.9318C61.4169 27.8153 61.2422 27.669 61.1172 27.4929C60.9922 27.3139 60.9027 27.1335 60.8487 26.9517H60.7592L60.5888 28H58.799ZM61.1214 24.7273C61.0589 25.1165 61.0575 25.456 61.1172 25.7457C61.1797 26.0355 61.299 26.2614 61.4751 26.4233C61.6541 26.5824 61.8885 26.6619 62.1783 26.6619C62.4766 26.6619 62.7408 26.581 62.9709 26.419C63.2038 26.2543 63.397 26.027 63.5504 25.7372C63.7038 25.4446 63.8118 25.108 63.8743 24.7273C63.9339 24.3494 63.9354 24.017 63.8786 23.7301C63.8217 23.4432 63.7053 23.2187 63.5291 23.0568C63.353 22.8949 63.1143 22.8139 62.8132 22.8139C62.5206 22.8139 62.2578 22.892 62.0249 23.0483C61.7947 23.2045 61.6016 23.4261 61.4453 23.7131C61.2919 24 61.1839 24.3381 61.1214 24.7273Z" fill="#30ED8B"/>
<path d="M69.7071 48.7071C70.0976 48.3166 70.0976 47.6834 69.7071 47.2929L63.3431 40.9289C62.9526 40.5384 62.3195 40.5384 61.9289 40.9289C61.5384 41.3195 61.5384 41.9526 61.9289 42.3431L67.5858 48L61.9289 53.6569C61.5384 54.0474 61.5384 54.6805 61.9289 55.0711C62.3195 55.4616 62.9526 55.4616 63.3431 55.0711L69.7071 48.7071ZM10 49H69V47H10V49Z" fill="#514683"/>
<path d="M10.7071 2.29289C10.3166 1.90237 9.68342 1.90237 9.29289 2.29289L2.92893 8.65685C2.53841 9.04738 2.53841 9.68054 2.92893 10.0711C3.31946 10.4616 3.95262 10.4616 4.34315 10.0711L10 4.41422L15.6569 10.0711C16.0474 10.4616 16.6805 10.4616 17.0711 10.0711C17.4616 9.68054 17.4616 9.04738 17.0711 8.65685L10.7071 2.29289ZM11 49L11 3H9L9 49H11Z" fill="#514683"/>
<path d="M9.86659 2.00894C9.31924 2.08262 8.93526 2.58606 9.00894 3.13341L10.2096 12.053C10.2833 12.6003 10.7868 12.9843 11.3341 12.9106C11.8815 12.8369 12.2655 12.3335 12.1918 11.7861L11.1245 3.85765L19.053 2.79035C19.6003 2.71667 19.9843 2.21323 19.9106 1.66588C19.8369 1.11853 19.3335 0.73455 18.7861 0.808231L9.86659 2.00894ZM69.6064 47.2049L10.6064 2.20488L9.39355 3.79512L68.3936 48.7951L69.6064 47.2049Z" fill="#30ED8B"/>
</svg>
