<svg width="83" height="66" viewBox="0 0 83 66" fill="none" xmlns="http://www.w3.org/2000/svg">
<rect width="83" height="66" fill="white"/>
<path d="M2.02841 41.1236C1.61364 41.1236 1.25426 41.0511 0.950284 40.9062C0.649148 40.7585 0.427557 40.5398 0.285511 40.25C0.143466 39.9602 0.107955 39.6009 0.178977 39.1719C0.241477 38.8082 0.359375 38.5043 0.53267 38.2599C0.708807 38.0128 0.923295 37.8139 1.17614 37.6634C1.42898 37.5128 1.70881 37.3977 2.01562 37.3182C2.32528 37.2386 2.64489 37.1847 2.97443 37.1562C3.35511 37.1165 3.66477 37.0781 3.90341 37.0412C4.14489 37.0043 4.32528 36.9517 4.4446 36.8835C4.56392 36.8125 4.63636 36.7074 4.66193 36.5682V36.5426C4.70455 36.2756 4.65483 36.0682 4.51278 35.9205C4.37358 35.7699 4.15057 35.6946 3.84375 35.6946C3.51989 35.6946 3.24432 35.7656 3.01705 35.9077C2.79261 36.0497 2.6321 36.2301 2.53551 36.4489L0.882102 36.3125C1.02983 35.9148 1.25284 35.571 1.55114 35.2812C1.85227 34.9886 2.21449 34.7642 2.63778 34.608C3.06108 34.4489 3.53551 34.3693 4.06108 34.3693C4.42472 34.3693 4.7642 34.4119 5.07955 34.4972C5.39773 34.5824 5.67188 34.7145 5.90199 34.8935C6.13494 35.0724 6.30256 35.3026 6.40483 35.5838C6.50994 35.8622 6.53125 36.196 6.46875 36.5852L5.73153 41H4.00994L4.16335 40.0923H4.11222C3.97301 40.2969 3.80256 40.4773 3.60085 40.6335C3.39915 40.7869 3.16761 40.9077 2.90625 40.9957C2.64489 41.081 2.35227 41.1236 2.02841 41.1236ZM2.7571 39.8707C3.02131 39.8707 3.2642 39.8182 3.4858 39.7131C3.71023 39.6051 3.89489 39.4602 4.03977 39.2784C4.1875 39.0966 4.28125 38.8906 4.32102 38.6605L4.43182 37.9659C4.375 38.0028 4.29261 38.0355 4.18466 38.0639C4.07955 38.0923 3.96449 38.1193 3.83949 38.1449C3.71733 38.1676 3.59375 38.1889 3.46875 38.2088C3.34375 38.2259 3.23153 38.2429 3.1321 38.2599C2.91335 38.2912 2.71733 38.3409 2.54403 38.4091C2.37074 38.4773 2.23011 38.5696 2.12216 38.6861C2.0142 38.7997 1.94744 38.9418 1.92188 39.1122C1.8821 39.3594 1.94034 39.5483 2.09659 39.679C2.25568 39.8068 2.47585 39.8707 2.7571 39.8707Z" fill="#514683"/>
<path d="M34.2131 64L35.6619 55.2727H37.4773L36.9403 58.554H36.9915C37.0994 58.3778 37.2443 58.1989 37.4261 58.017C37.6108 57.8324 37.8366 57.679 38.1037 57.5568C38.3707 57.4318 38.6875 57.3693 39.054 57.3693C39.5313 57.3693 39.9503 57.4943 40.3111 57.7443C40.6719 57.9915 40.9318 58.3651 41.0909 58.8651C41.25 59.3622 41.267 59.9858 41.142 60.7358C41.0227 61.4659 40.8026 62.0824 40.4815 62.5852C40.1634 63.0852 39.7813 63.4645 39.3352 63.723C38.892 63.9787 38.4219 64.1065 37.9247 64.1065C37.5724 64.1065 37.2827 64.0483 37.0554 63.9318C36.831 63.8153 36.6562 63.669 36.5312 63.4929C36.4062 63.3139 36.3168 63.1335 36.2628 62.9517H36.1733L36.0028 64H34.2131ZM36.5355 60.7273C36.473 61.1165 36.4716 61.456 36.5312 61.7457C36.5938 62.0355 36.7131 62.2614 36.8892 62.4233C37.0682 62.5824 37.3026 62.6619 37.5923 62.6619C37.8906 62.6619 38.1548 62.581 38.3849 62.419C38.6179 62.2543 38.8111 62.027 38.9645 61.7372C39.1179 61.4446 39.2259 61.108 39.2884 60.7273C39.348 60.3494 39.3494 60.017 39.2926 59.7301C39.2358 59.4432 39.1193 59.2187 38.9432 59.0568C38.767 58.8949 38.5284 58.8139 38.2273 58.8139C37.9347 58.8139 37.6719 58.892 37.4389 59.0483C37.2088 59.2045 37.0156 59.4261 36.8594 59.7131C36.706 60 36.598 60.3381 36.5355 60.7273Z" fill="#514683"/>
<path d="M35.0284 44.1236C34.6136 44.1236 34.2543 44.0511 33.9503 43.9062C33.6491 43.7585 33.4276 43.5398 33.2855 43.25C33.1435 42.9602 33.108 42.6009 33.179 42.1719C33.2415 41.8082 33.3594 41.5043 33.5327 41.2599C33.7088 41.0128 33.9233 40.8139 34.1761 40.6634C34.429 40.5128 34.7088 40.3977 35.0156 40.3182C35.3253 40.2386 35.6449 40.1847 35.9744 40.1562C36.3551 40.1165 36.6648 40.0781 36.9034 40.0412C37.1449 40.0043 37.3253 39.9517 37.4446 39.8835C37.5639 39.8125 37.6364 39.7074 37.6619 39.5682V39.5426C37.7045 39.2756 37.6548 39.0682 37.5128 38.9205C37.3736 38.7699 37.1506 38.6946 36.8438 38.6946C36.5199 38.6946 36.2443 38.7656 36.017 38.9077C35.7926 39.0497 35.6321 39.2301 35.5355 39.4489L33.8821 39.3125C34.0298 38.9148 34.2528 38.571 34.5511 38.2812C34.8523 37.9886 35.2145 37.7642 35.6378 37.608C36.0611 37.4489 36.5355 37.3693 37.0611 37.3693C37.4247 37.3693 37.7642 37.4119 38.0795 37.4972C38.3977 37.5824 38.6719 37.7145 38.902 37.8935C39.1349 38.0724 39.3026 38.3026 39.4048 38.5838C39.5099 38.8622 39.5312 39.196 39.4688 39.5852L38.7315 44H37.0099L37.1634 43.0923H37.1122C36.973 43.2969 36.8026 43.4773 36.6009 43.6335C36.3991 43.7869 36.1676 43.9077 35.9062 43.9957C35.6449 44.081 35.3523 44.1236 35.0284 44.1236ZM35.7571 42.8707C36.0213 42.8707 36.2642 42.8182 36.4858 42.7131C36.7102 42.6051 36.8949 42.4602 37.0398 42.2784C37.1875 42.0966 37.2813 41.8906 37.321 41.6605L37.4318 40.9659C37.375 41.0028 37.2926 41.0355 37.1847 41.0639C37.0795 41.0923 36.9645 41.1193 36.8395 41.1449C36.7173 41.1676 36.5938 41.1889 36.4688 41.2088C36.3438 41.2259 36.2315 41.2429 36.1321 41.2599C35.9134 41.2912 35.7173 41.3409 35.544 41.4091C35.3707 41.4773 35.2301 41.5696 35.1222 41.6861C35.0142 41.7997 34.9474 41.9418 34.9219 42.1122C34.8821 42.3594 34.9403 42.5483 35.0966 42.679C35.2557 42.8068 35.4759 42.8707 35.7571 42.8707ZM42.8118 43.527L43.8047 37.4929H45.3388L44.3416 43.527H42.8118ZM40.924 41.2727L41.1839 39.7472H47.218L46.9581 41.2727H40.924ZM48.3303 44L49.7791 35.2727H51.5945L51.0575 38.554H51.1087C51.2166 38.3778 51.3615 38.1989 51.5433 38.017C51.728 37.8324 51.9538 37.679 52.2209 37.5568C52.4879 37.4318 52.8047 37.3693 53.1712 37.3693C53.6484 37.3693 54.0675 37.4943 54.4283 37.7443C54.7891 37.9915 55.049 38.3651 55.2081 38.8651C55.3672 39.3622 55.3842 39.9858 55.2592 40.7358C55.1399 41.4659 54.9197 42.0824 54.5987 42.5852C54.2805 43.0852 53.8984 43.4645 53.4524 43.723C53.0092 43.9787 52.5391 44.1065 52.0419 44.1065C51.6896 44.1065 51.3999 44.0483 51.1726 43.9318C50.9482 43.8153 50.7734 43.669 50.6484 43.4929C50.5234 43.3139 50.4339 43.1335 50.38 42.9517H50.2905L50.12 44H48.3303ZM50.6527 40.7273C50.5902 41.1165 50.5888 41.456 50.6484 41.7457C50.7109 42.0355 50.8303 42.2614 51.0064 42.4233C51.1854 42.5824 51.4197 42.6619 51.7095 42.6619C52.0078 42.6619 52.272 42.581 52.5021 42.419C52.7351 42.2543 52.9283 42.027 53.0817 41.7372C53.2351 41.4446 53.343 41.108 53.4055 40.7273C53.4652 40.3494 53.4666 40.017 53.4098 39.7301C53.353 39.4432 53.2365 39.2187 53.0604 39.0568C52.8842 38.8949 52.6456 38.8139 52.3445 38.8139C52.0518 38.8139 51.7891 38.892 51.5561 39.0483C51.326 39.2045 51.1328 39.4261 50.9766 39.7131C50.8232 40 50.7152 40.3381 50.6527 40.7273Z" fill="#30ED8B"/>
<path d="M69.7071 55.7071C70.0976 55.3166 70.0976 54.6834 69.7071 54.2929L63.3431 47.9289C62.9526 47.5384 62.3195 47.5384 61.9289 47.9289C61.5384 48.3195 61.5384 48.9526 61.9289 49.3431L67.5858 55L61.9289 60.6569C61.5384 61.0474 61.5384 61.6805 61.9289 62.0711C62.3195 62.4616 62.9526 62.4616 63.3431 62.0711L69.7071 55.7071ZM10 56H69V54H10V56Z" fill="#514683"/>
<path d="M10 11H83" stroke="#514683"/>
<path d="M10.7071 9.29289C10.3166 8.90237 9.68342 8.90237 9.29289 9.29289L2.92893 15.6569C2.53841 16.0474 2.53841 16.6805 2.92893 17.0711C3.31946 17.4616 3.95262 17.4616 4.34315 17.0711L10 11.4142L15.6569 17.0711C16.0474 17.4616 16.6805 17.4616 17.0711 17.0711C17.4616 16.6805 17.4616 16.0474 17.0711 15.6569L10.7071 9.29289ZM11 56L11 10H9L9 56H11Z" fill="#514683"/>
<path d="M68 55V-1.19209e-06" stroke="#514683"/>
<path d="M67.9895 12.1444C68.0693 11.5979 67.6909 11.0902 67.1444 11.0105L58.2387 9.71108C57.6922 9.63134 57.1845 10.0097 57.1048 10.5562C57.025 11.1027 57.4034 11.6104 57.9499 11.6901L65.8661 12.8451L64.7111 20.7613C64.6313 21.3078 65.0097 21.8155 65.5562 21.8952C66.1027 21.975 66.6104 21.5966 66.6901 21.0501L67.9895 12.1444ZM9.59761 56.0317L67.5976 12.8018L66.4024 11.1982L8.40239 54.4282L9.59761 56.0317Z" fill="#30ED8B"/>
</svg>
